<svg data-name="Layer 1" xmlns="http://www.w3.org/2000/svg" viewBox="0 0 1365.82 136.88"><defs><style>.cls-1{fill:#133880;}.cls-2{fill:#dae6fd;}</style></defs><path class="cls-1" d="M586.49,136.78H509.25q-252.36,0-504.71.1c-3.86,0-4.55-1-4.54-4.64C.14,80.81.09,84.39.09,33c1.17.07,1.6,1.09,2.21,1.81,14.38,17,31.89,30.15,51.22,40.9,46.85,26.06,98,37.07,150.71,42.13,37.71,3.62,75.48,3.51,113.29,1.23a1111,1111,0,0,0,141.07-17.76c51.75-9.85,103.79-17,156.45-19.16,65.09-2.65,129.8,1.73,194.22,11,55.16,8,109.8,19,164.75,28.26,36.46,6.13,73,11.1,110,13.29,41.87,2.48,83.56.88,125-5.89,14.07-2.3,28.18-4.56,41.84-8.84l1.88-.32a86.29,86.29,0,0,0,16.71-4.49l.32-.13c1.25,0,2.5,0,3.48-1l.31.06.22-.23a3,3,0,0,0,2.66-.71c14.32-3.67,28.16-8.79,42-13.8,16-5.78,31.48-13.09,47.29-19.47,0,35.78-.06,16.56.09,52.34,0,3.67-.72,4.63-4.55,4.63q-387.39-.15-774.78-.1"/><path class="cls-2" d="M.09,0C19,22.09,42.21,38.56,68.32,51c30.1,14.35,61.91,23.31,94.7,28.89a594.06,594.06,0,0,0,68.31,7.27q33.72,1.77,67.38.47A1047.92,1047.92,0,0,0,421.5,75.15c24.47-3.86,48.72-8.84,73.15-12.79,19.66-3.18,39.42-5.66,59.26-7.59a790.7,790.7,0,0,1,98.63-3.64c19.39.54,38.78,1.77,58.15,3.57C750.62,58.39,790.07,64.94,829.31,73c26.89,5.49,53.58,11.89,80.26,18.32,38.81,9.34,77.58,18.85,116.83,26.19q33.3,6.23,67,9.59c13.24,1.31,26.49,2.3,39.74,2.66a491,491,0,0,0,113-9.94c1.54-.32,3.18-1.46,4.66.19-13.66,4.28-27.77,6.54-41.84,8.84-41.43,6.77-83.12,8.37-125,5.89-36.93-2.19-73.52-7.16-110-13.29-55-9.25-109.59-20.29-164.75-28.26-64.42-9.31-129.13-13.69-194.22-11-52.66,2.14-104.7,9.31-156.45,19.16A1111,1111,0,0,1,317.52,119c-37.81,2.28-75.58,2.39-113.29-1.23-52.72-5.06-103.86-16.07-150.71-42.13C34.19,64.92,16.68,51.78,2.3,34.77,1.69,34.05,1.26,33,.09,33Z"/><path class="cls-2" d="M1252.7,119.65c5-3.65,10.82-4.16,16.71-4.49A86.29,86.29,0,0,1,1252.7,119.65Z"/><path class="cls-2" d="M1269.73,115a3.38,3.38,0,0,1,3.48-1C1272.23,115,1271,115,1269.73,115Z"/><path class="cls-2" d="M1273.74,113.89a2.75,2.75,0,0,1,2.66-.71A3,3,0,0,1,1273.74,113.89Z"/></svg>