<svg xmlns="http://www.w3.org/2000/svg" viewBox="0 0 328.87 118.63"><defs><style>.cls-1{fill:#ec1c24;}.cls-1,.cls-2{fill-rule:evenodd;}.cls-2{fill:#15397f;}</style></defs><title>Asset 2</title><g id="Layer_2" data-name="Layer 2"><g id="Layer_1-2" data-name="Layer 1"><path class="cls-1" d="M33.85,97.62H138.42v1.8a4.66,4.66,0,0,1-4.66,4.66H89.81l1.45,7.35h13.63v5.7H63.43v-5.7H77.05l1.46-7.35H34.56a4.66,4.66,0,0,1-4.66-4.66V48.33c1.35-.06,2.69-.16,4-.3V97.62ZM134.23,31.91H73.36l-1.85-3.78h62.25a4.66,4.66,0,0,1,4.57,3.78ZM34.56,28.13h1l-4,1.14A4.65,4.65,0,0,1,34.56,28.13Z"/><path class="cls-2" d="M46.73,37c-11.47,2.88-20.38,6.77-19.9,8.7S37,46.83,48.48,44s23.5-8,23-9.9S58.21,34.11,46.73,37ZM.87,39.57c-.77.13-1.21-.69-.55-1.35,2.49-2.68,4.95-5.36,7.41-8V26.71a1.06,1.06,0,0,1,1.11-1.07h1l0,21.27a.68.68,0,0,1,.59.72l.12,1.48c0,.83-.33,1-.29,1.65l.09,1.77c0,.51.38.75.41,1.41l1.51,12.54c-.75,1.5-6.13,1.54-7,0L6.8,54c0-.68.42-.87.45-1.42l.09-1.79c0-.7-.39-.65-.34-1.61l.11-1.5a.71.71,0,0,1,.64-.73V38.64q-3.44.48-6.87.93ZM11.52,26c5.34-5.87,10.64-11.76,16-17.7,1.75-1.95,2.59-1.9,4.95-2.19L87.63,0c1.12-.19,1.55.5.8,1.32L68.79,22.58C65.57,16.31,63.42,13,53.4,14.19a67.41,67.41,0,0,0-18.18,4.73c-4,1.58-6.2,2.86-8,5.94,1.6-2,4.21-3.37,7.07-4.5a74.78,74.78,0,0,1,18.57-4.69c3.8-.45,7.44-.39,10,1.54,2.08,1.6,5,8.08,6.65,11.43l1.83,3.55c-5.39-.42-13.79.73-22.6,3-7.91,2-17.85,5.17-22.8,8.47l-.16-7.55c-4.75.65-9.48,1.33-14.22,2Z"/><path class="cls-1" d="M73.7,59.75c0-7.29-2.41-11.86-10.49-11.86H52.67V85.24h7.45V71.76h3.09c8.08,0,10.49-4.67,10.49-12Zm-7.45,0c0,2.36-.15,5.25-3,5.25H60.12V54.61h3.14c2.84,0,3,2.83,3,5.19Zm30.17-5.19V47.89h-20v6.72h6.29V85.24h7.45V54.61Zm21.14,30.63V78.53H107.8V69.77h8.39V63.05H107.8V54.61h9.76V47.89H100.35V85.24Z"/><path class="cls-2" d="M143.59,54.61V47.89h-20v6.72h6.29V85.24h7.45V54.61Zm24.76,20.61V47.89H160.9v27.7c0,2.42-1.42,3.36-3.1,3.36s-3.09-.94-3.09-3.36V47.89h-7.45V75.22A10.26,10.26,0,0,0,150,82.57a11.3,11.3,0,0,0,15.53,0,10.31,10.31,0,0,0,2.78-7.35Zm23.71-20.61V47.89H172v6.72h6.29V85.24h7.45V54.61Zm24,12c0-5,.21-11.8-2.78-15.37A9.88,9.88,0,0,0,205,47.47a9.66,9.66,0,0,0-8.13,3.73c-3,3.57-2.78,10.33-2.78,15.37s-.21,11.8,2.78,15.37A9.66,9.66,0,0,0,205,85.66a9.87,9.87,0,0,0,8.24-3.72c3-3.57,2.78-10.33,2.78-15.37Zm-7.45,0c0,4.51-.1,9.18-1,10.91A2.64,2.64,0,0,1,205,79a2.48,2.48,0,0,1-2.46-1.47c-.89-1.73-1-6.4-1-10.91s.11-9.18,1-10.91A2.48,2.48,0,0,1,205,54.19a2.64,2.64,0,0,1,2.57,1.47c.9,1.73,1,6.4,1,10.91Zm34.36,18.67-5.46-16.15c3.62-2.26,4.25-5.83,4.25-9.81,0-7.14-2.25-11.39-10.38-11.39H220.7V85.24h7.45V70.71h2.46l4.57,14.53Zm-8.66-26c0,2.15-.15,4.72-3,4.72h-3.14V54.61h3.14c2.84,0,3,2.52,3,4.67Zm20.31,26V47.89h-7.45V85.24Zm29.74,0-9.6-37.35h-7.34l-9.6,37.35h7.76l1.21-5.82h8.6l1.21,5.82ZM273.94,72.71h-5.77l2.89-13.85,2.88,13.85Zm30.8,12.53V78.53H295V47.89h-7.45V85.24Zm24-10.64c0-6.77-1.36-8.92-6.08-10.81L318,61.9c-2.15-.89-2.57-1.57-2.57-3.93a4.17,4.17,0,0,1,.63-2.68,2.49,2.49,0,0,1,2.15-1,2.41,2.41,0,0,1,2.15,1A5.61,5.61,0,0,1,321,58.6h7.45c0-3.78-.84-6.77-2.89-8.66-1.63-1.52-4-2.36-7.34-2.36a10.22,10.22,0,0,0-6.88,2.36c-2.25,1.94-3.35,4.83-3.35,8.29,0,5.82,1.57,7.81,5.35,9.39l4.72,1.94c2.67,1.1,3.25,1.73,3.25,5.3a4.92,4.92,0,0,1-.73,3.15,2.72,2.72,0,0,1-2.36.94,3,3,0,0,1-2.31-.89c-.68-.79-.79-1.89-.79-3.41h-7.45c0,3.83.63,6.45,2.47,8.29,1.68,1.67,4.4,2.72,8.08,2.72a11.61,11.61,0,0,0,8.13-2.78C328.29,81,328.76,78.37,328.76,74.6Z"/><path class="cls-1" d="M232.64,118.31h-4.42l.79-4h4.42l-.79,4Zm6.69-8.52a11,11,0,0,1,2.91-6.2,7.83,7.83,0,0,1,5.8-2.31,5.65,5.65,0,0,1,5,2.4,8.25,8.25,0,0,1,1.05,6.11l-.05.33a11,11,0,0,1-2.93,6.21,7.86,7.86,0,0,1-5.8,2.3,5.62,5.62,0,0,1-5-2.4,8.17,8.17,0,0,1-1-6.11l.05-.33Zm4.39.32a7.83,7.83,0,0,0,.07,3.71,2,2,0,0,0,2.06,1.32,2.81,2.81,0,0,0,2.41-1.39,9.11,9.11,0,0,0,1.32-3.64l0-.32a7.77,7.77,0,0,0-.1-3.67,1.94,1.94,0,0,0-2-1.36,2.84,2.84,0,0,0-2.43,1.42,8.8,8.8,0,0,0-1.3,3.61l0,.32ZM264,103.77a7.09,7.09,0,0,1,2.25-1.85,5.72,5.72,0,0,1,2.65-.64,3.64,3.64,0,0,1,3.27,1.62c.71,1.07.85,2.73.4,5l-2.08,10.44h-4.47l2.08-10.45a3.48,3.48,0,0,0-.08-2.45,1.93,1.93,0,0,0-1.71-.65,3,3,0,0,0-1.41.37,4.5,4.5,0,0,0-1.26,1l-2.42,12.15H256.8l3.34-16.71h4.16l-.26,2.17Zm16,14.54h-4.45l4.82-24.12h4.45l-4.82,24.12Zm9.87,0h-4.45l3.34-16.71h4.45L290,118.31Zm4.15-20.73h-4.46l.68-3.39h4.45l-.67,3.39Zm8.21,6.19a7,7,0,0,1,2.26-1.85,5.65,5.65,0,0,1,2.64-.64,3.67,3.67,0,0,1,3.28,1.62q1.06,1.6.4,5l-2.09,10.44h-4.47l2.09-10.45a3.46,3.46,0,0,0-.09-2.45,1.93,1.93,0,0,0-1.71-.65,3,3,0,0,0-1.41.37,4.61,4.61,0,0,0-1.25,1l-2.43,12.15h-4.45l3.34-16.71h4.15l-.26,2.17Zm18.57,14.86a5.81,5.81,0,0,1-5-2.34,7.44,7.44,0,0,1-1.13-5.87l.09-.61a11.19,11.19,0,0,1,2.88-6.21,7.34,7.34,0,0,1,5.53-2.32,5.2,5.2,0,0,1,4.54,2.06,7.25,7.25,0,0,1,.93,5.49l-.39,2.45H319.1a4.48,4.48,0,0,0,.57,2.82,2.48,2.48,0,0,0,2.24,1,7.74,7.74,0,0,0,2.31-.31,11.46,11.46,0,0,0,2.18-.94l.75,2.79a9.41,9.41,0,0,1-2.71,1.39,11.05,11.05,0,0,1-3.55.56Zm1.81-13.87a2.32,2.32,0,0,0-1.83,1,6.45,6.45,0,0,0-1.17,2.5l0,.08h4.73l.06-.4a3.83,3.83,0,0,0-.19-2.32A1.66,1.66,0,0,0,322.7,104.76Z"/></g></g></svg>