<?xml version="1.0" encoding="utf-8"?>
<!-- Generator: Adobe Illustrator 25.0.1, SVG Export Plug-In . SVG Version: 6.00 Build 0)  -->
<svg version="1.1" xmlns="http://www.w3.org/2000/svg" xmlns:xlink="http://www.w3.org/1999/xlink" x="0px" y="0px"
	 viewBox="0 0 1392.2 335.4" style="enable-background:new 0 0 1392.2 335.4;" xml:space="preserve">
<style type="text/css">
	.st0{fill:#F1F6FF;}
	.st1{fill:#133880;}
	.st2{fill:url(#SVGID_1_);}
	.st3{fill:none;stroke:#133880;stroke-width:3;}
	.st4{fill:none;stroke:#133880;stroke-width:1.5;}
	.st5{fill:#FFFFFF;}
	.st6{fill:none;stroke:#133880;stroke-width:2;}
</style>
<g>
	<path class="st0" d="M1392.2,90H0V28.8C0,12.9,12.9,0,28.8,0h1334.6c15.9,0,28.8,12.9,28.8,28.8V90z"/>
	<path class="st1" d="M363.7,0H28.8C12.9,0,0,12.9,0,28.8V90h363.7V0z"/>
	<path class="st0" d="M1363.4,335.4H28.8C12.9,335.4,0,322.5,0,306.6v-61.2h1392.2v61.2C1392.2,322.5,1379.3,335.4,1363.4,335.4z"/>
	<linearGradient id="SVGID_1_" gradientUnits="userSpaceOnUse" x1="0" y1="167.7129" x2="1392.2007" y2="167.7129">
		<stop  offset="0" style="stop-color:#A4F6C3"/>
		<stop  offset="1" style="stop-color:#A1DAF6"/>
	</linearGradient>
	<rect y="97.2" class="st2" width="1392.2" height="141"/>
	<g>
		<g>
			<line class="st3" x1="1360.7" y1="97.2" x2="1360.7" y2="138.2"/>
			<line class="st3" x1="1236.1" y1="97.2" x2="1236.1" y2="138.2"/>
			<line class="st3" x1="1111.5" y1="97.2" x2="1111.5" y2="138.2"/>
			<line class="st3" x1="986.8" y1="97.2" x2="986.8" y2="138.2"/>
			<line class="st3" x1="862.2" y1="97.2" x2="862.2" y2="138.2"/>
			<line class="st3" x1="737.6" y1="97.2" x2="737.6" y2="138.2"/>
			<line class="st3" x1="613" y1="97.2" x2="613" y2="138.2"/>
			<line class="st3" x1="488.3" y1="97.2" x2="488.3" y2="138.2"/>
			<g>
				<line class="st4" x1="1298.4" y1="97.2" x2="1298.4" y2="128.9"/>
				<line class="st4" x1="1173.8" y1="97.2" x2="1173.8" y2="128.9"/>
				<line class="st4" x1="1049.1" y1="97.2" x2="1049.1" y2="128.9"/>
				<line class="st4" x1="924.5" y1="97.2" x2="924.5" y2="128.9"/>
				<line class="st4" x1="799.9" y1="97.2" x2="799.9" y2="128.9"/>
				<line class="st4" x1="675.3" y1="97.2" x2="675.3" y2="128.9"/>
				<line class="st4" x1="550.6" y1="97.2" x2="550.6" y2="128.9"/>
				<line class="st4" x1="426" y1="97.2" x2="426" y2="128.9"/>
			</g>
			<g>
				<line class="st4" x1="1310.9" y1="97.2" x2="1310.9" y2="120.4"/>
				<line class="st4" x1="1323.3" y1="97.2" x2="1323.3" y2="120.4"/>
				<line class="st4" x1="1335.8" y1="97.2" x2="1335.8" y2="120.4"/>
				<line class="st4" x1="1348.2" y1="97.2" x2="1348.2" y2="120.4"/>
				<line class="st4" x1="1248.5" y1="97.2" x2="1248.5" y2="120.4"/>
				<line class="st4" x1="1261" y1="97.2" x2="1261" y2="120.4"/>
				<line class="st4" x1="1273.5" y1="97.2" x2="1273.5" y2="120.4"/>
				<line class="st4" x1="1285.9" y1="97.2" x2="1285.9" y2="120.4"/>
				<line class="st4" x1="1186.2" y1="97.2" x2="1186.2" y2="120.4"/>
				<line class="st4" x1="1198.7" y1="97.2" x2="1198.7" y2="120.4"/>
				<line class="st4" x1="1211.2" y1="97.2" x2="1211.2" y2="120.4"/>
				<line class="st4" x1="1223.6" y1="97.2" x2="1223.6" y2="120.4"/>
				<line class="st4" x1="1123.9" y1="97.2" x2="1123.9" y2="120.4"/>
				<line class="st4" x1="1136.4" y1="97.2" x2="1136.4" y2="120.4"/>
				<line class="st4" x1="1148.8" y1="97.2" x2="1148.8" y2="120.4"/>
				<line class="st4" x1="1161.3" y1="97.2" x2="1161.3" y2="120.4"/>
				<line class="st4" x1="1061.6" y1="97.2" x2="1061.6" y2="120.4"/>
				<line class="st4" x1="1074.1" y1="97.2" x2="1074.1" y2="120.4"/>
				<line class="st4" x1="1086.5" y1="97.2" x2="1086.5" y2="120.4"/>
				<line class="st4" x1="1099" y1="97.2" x2="1099" y2="120.4"/>
				<line class="st4" x1="999.3" y1="97.2" x2="999.3" y2="120.4"/>
				<line class="st4" x1="1011.8" y1="97.2" x2="1011.8" y2="120.4"/>
				<line class="st4" x1="1024.2" y1="97.2" x2="1024.2" y2="120.4"/>
				<line class="st4" x1="1036.7" y1="97.2" x2="1036.7" y2="120.4"/>
				<line class="st4" x1="937" y1="97.2" x2="937" y2="120.4"/>
				<line class="st4" x1="949.4" y1="97.2" x2="949.4" y2="120.4"/>
				<line class="st4" x1="961.9" y1="97.2" x2="961.9" y2="120.4"/>
				<line class="st4" x1="974.4" y1="97.2" x2="974.4" y2="120.4"/>
				<line class="st4" x1="874.7" y1="97.2" x2="874.7" y2="120.4"/>
				<line class="st4" x1="887.1" y1="97.2" x2="887.1" y2="120.4"/>
				<line class="st4" x1="899.6" y1="97.2" x2="899.6" y2="120.4"/>
				<line class="st4" x1="912.1" y1="97.2" x2="912.1" y2="120.4"/>
				<line class="st4" x1="812.4" y1="97.2" x2="812.4" y2="120.4"/>
				<line class="st4" x1="824.8" y1="97.2" x2="824.8" y2="120.4"/>
				<line class="st4" x1="837.3" y1="97.2" x2="837.3" y2="120.4"/>
				<line class="st4" x1="849.7" y1="97.2" x2="849.7" y2="120.4"/>
				<line class="st4" x1="750" y1="97.2" x2="750" y2="120.4"/>
				<line class="st4" x1="762.5" y1="97.2" x2="762.5" y2="120.4"/>
				<line class="st4" x1="775" y1="97.2" x2="775" y2="120.4"/>
				<line class="st4" x1="787.4" y1="97.2" x2="787.4" y2="120.4"/>
				<line class="st4" x1="687.7" y1="97.2" x2="687.7" y2="120.4"/>
				<line class="st4" x1="700.2" y1="97.2" x2="700.2" y2="120.4"/>
				<line class="st4" x1="712.7" y1="97.2" x2="712.7" y2="120.4"/>
				<line class="st4" x1="725.1" y1="97.2" x2="725.1" y2="120.4"/>
				<line class="st4" x1="625.4" y1="97.2" x2="625.4" y2="120.4"/>
				<line class="st4" x1="637.9" y1="97.2" x2="637.9" y2="120.4"/>
				<line class="st4" x1="650.3" y1="97.2" x2="650.3" y2="120.4"/>
				<line class="st4" x1="662.8" y1="97.2" x2="662.8" y2="120.4"/>
				<line class="st4" x1="563.1" y1="97.2" x2="563.1" y2="120.4"/>
				<line class="st4" x1="575.6" y1="97.2" x2="575.6" y2="120.4"/>
				<line class="st4" x1="588" y1="97.2" x2="588" y2="120.4"/>
				<line class="st4" x1="600.5" y1="97.2" x2="600.5" y2="120.4"/>
				<line class="st4" x1="500.8" y1="97.2" x2="500.8" y2="120.4"/>
				<line class="st4" x1="513.3" y1="97.2" x2="513.3" y2="120.4"/>
				<line class="st4" x1="525.7" y1="97.2" x2="525.7" y2="120.4"/>
				<line class="st4" x1="538.2" y1="97.2" x2="538.2" y2="120.4"/>
				<line class="st4" x1="438.5" y1="97.2" x2="438.5" y2="120.4"/>
				<line class="st4" x1="450.9" y1="97.2" x2="450.9" y2="120.4"/>
				<line class="st4" x1="463.4" y1="97.2" x2="463.4" y2="120.4"/>
				<line class="st4" x1="475.9" y1="97.2" x2="475.9" y2="120.4"/>
				<line class="st4" x1="376.2" y1="97.2" x2="376.2" y2="120.4"/>
				<line class="st4" x1="388.6" y1="97.2" x2="388.6" y2="120.4"/>
				<line class="st4" x1="401.1" y1="97.2" x2="401.1" y2="120.4"/>
				<line class="st4" x1="413.6" y1="97.2" x2="413.6" y2="120.4"/>
			</g>
			<line class="st3" x1="363.7" y1="97.2" x2="363.7" y2="138.2"/>
		</g>
	</g>
	<g>
		<g>
			<line class="st3" x1="1360.7" y1="238.2" x2="1360.7" y2="197.2"/>
			<line class="st3" x1="1236.1" y1="238.2" x2="1236.1" y2="197.2"/>
			<line class="st3" x1="1111.5" y1="238.2" x2="1111.5" y2="197.2"/>
			<line class="st3" x1="986.8" y1="238.2" x2="986.8" y2="197.2"/>
			<line class="st3" x1="862.2" y1="238.2" x2="862.2" y2="197.2"/>
			<line class="st3" x1="737.6" y1="238.2" x2="737.6" y2="197.2"/>
			<line class="st3" x1="613" y1="238.2" x2="613" y2="197.2"/>
			<line class="st3" x1="488.3" y1="238.2" x2="488.3" y2="197.2"/>
			<g>
				<line class="st4" x1="1298.4" y1="238.2" x2="1298.4" y2="206.5"/>
				<line class="st4" x1="1173.8" y1="238.2" x2="1173.8" y2="206.5"/>
				<line class="st4" x1="1049.1" y1="238.2" x2="1049.1" y2="206.5"/>
				<line class="st4" x1="924.5" y1="238.2" x2="924.5" y2="206.5"/>
				<line class="st4" x1="799.9" y1="238.2" x2="799.9" y2="206.5"/>
				<line class="st4" x1="675.3" y1="238.2" x2="675.3" y2="206.5"/>
				<line class="st4" x1="550.6" y1="238.2" x2="550.6" y2="206.5"/>
				<line class="st4" x1="426" y1="238.2" x2="426" y2="206.5"/>
			</g>
			<g>
				<line class="st4" x1="1310.9" y1="238.2" x2="1310.9" y2="215.1"/>
				<line class="st4" x1="1323.3" y1="238.2" x2="1323.3" y2="215.1"/>
				<line class="st4" x1="1335.8" y1="238.2" x2="1335.8" y2="215.1"/>
				<line class="st4" x1="1348.2" y1="238.2" x2="1348.2" y2="215.1"/>
				<line class="st4" x1="1248.5" y1="238.2" x2="1248.5" y2="215.1"/>
				<line class="st4" x1="1261" y1="238.2" x2="1261" y2="215.1"/>
				<line class="st4" x1="1273.5" y1="238.2" x2="1273.5" y2="215.1"/>
				<line class="st4" x1="1285.9" y1="238.2" x2="1285.9" y2="215.1"/>
				<line class="st4" x1="1186.2" y1="238.2" x2="1186.2" y2="215.1"/>
				<line class="st4" x1="1198.7" y1="238.2" x2="1198.7" y2="215.1"/>
				<line class="st4" x1="1211.2" y1="238.2" x2="1211.2" y2="215.1"/>
				<line class="st4" x1="1223.6" y1="238.2" x2="1223.6" y2="215.1"/>
				<line class="st4" x1="1123.9" y1="238.2" x2="1123.9" y2="215.1"/>
				<line class="st4" x1="1136.4" y1="238.2" x2="1136.4" y2="215.1"/>
				<line class="st4" x1="1148.8" y1="238.2" x2="1148.8" y2="215.1"/>
				<line class="st4" x1="1161.3" y1="238.2" x2="1161.3" y2="215.1"/>
				<line class="st4" x1="1061.6" y1="238.2" x2="1061.6" y2="215.1"/>
				<line class="st4" x1="1074.1" y1="238.2" x2="1074.1" y2="215.1"/>
				<line class="st4" x1="1086.5" y1="238.2" x2="1086.5" y2="215.1"/>
				<line class="st4" x1="1099" y1="238.2" x2="1099" y2="215.1"/>
				<line class="st4" x1="999.3" y1="238.2" x2="999.3" y2="215.1"/>
				<line class="st4" x1="1011.8" y1="238.2" x2="1011.8" y2="215.1"/>
				<line class="st4" x1="1024.2" y1="238.2" x2="1024.2" y2="215.1"/>
				<line class="st4" x1="1036.7" y1="238.2" x2="1036.7" y2="215.1"/>
				<line class="st4" x1="937" y1="238.2" x2="937" y2="215.1"/>
				<line class="st4" x1="949.4" y1="238.2" x2="949.4" y2="215.1"/>
				<line class="st4" x1="961.9" y1="238.2" x2="961.9" y2="215.1"/>
				<line class="st4" x1="974.4" y1="238.2" x2="974.4" y2="215.1"/>
				<line class="st4" x1="874.7" y1="238.2" x2="874.7" y2="215.1"/>
				<line class="st4" x1="887.1" y1="238.2" x2="887.1" y2="215.1"/>
				<line class="st4" x1="899.6" y1="238.2" x2="899.6" y2="215.1"/>
				<line class="st4" x1="912.1" y1="238.2" x2="912.1" y2="215.1"/>
				<line class="st4" x1="812.4" y1="238.2" x2="812.4" y2="215.1"/>
				<line class="st4" x1="824.8" y1="238.2" x2="824.8" y2="215.1"/>
				<line class="st4" x1="837.3" y1="238.2" x2="837.3" y2="215.1"/>
				<line class="st4" x1="849.7" y1="238.2" x2="849.7" y2="215.1"/>
				<line class="st4" x1="750" y1="238.2" x2="750" y2="215.1"/>
				<line class="st4" x1="762.5" y1="238.2" x2="762.5" y2="215.1"/>
				<line class="st4" x1="775" y1="238.2" x2="775" y2="215.1"/>
				<line class="st4" x1="787.4" y1="238.2" x2="787.4" y2="215.1"/>
				<line class="st4" x1="687.7" y1="238.2" x2="687.7" y2="215.1"/>
				<line class="st4" x1="700.2" y1="238.2" x2="700.2" y2="215.1"/>
				<line class="st4" x1="712.7" y1="238.2" x2="712.7" y2="215.1"/>
				<line class="st4" x1="725.1" y1="238.2" x2="725.1" y2="215.1"/>
				<line class="st4" x1="625.4" y1="238.2" x2="625.4" y2="215.1"/>
				<line class="st4" x1="637.9" y1="238.2" x2="637.9" y2="215.1"/>
				<line class="st4" x1="650.3" y1="238.2" x2="650.3" y2="215.1"/>
				<line class="st4" x1="662.8" y1="238.2" x2="662.8" y2="215.1"/>
				<line class="st4" x1="563.1" y1="238.2" x2="563.1" y2="215.1"/>
				<line class="st4" x1="575.6" y1="238.2" x2="575.6" y2="215.1"/>
				<line class="st4" x1="588" y1="238.2" x2="588" y2="215.1"/>
				<line class="st4" x1="600.5" y1="238.2" x2="600.5" y2="215.1"/>
				<line class="st4" x1="500.8" y1="238.2" x2="500.8" y2="215.1"/>
				<line class="st4" x1="513.3" y1="238.2" x2="513.3" y2="215.1"/>
				<line class="st4" x1="525.7" y1="238.2" x2="525.7" y2="215.1"/>
				<line class="st4" x1="538.2" y1="238.2" x2="538.2" y2="215.1"/>
				<line class="st4" x1="438.5" y1="238.2" x2="438.5" y2="215.1"/>
				<line class="st4" x1="450.9" y1="238.2" x2="450.9" y2="215.1"/>
				<line class="st4" x1="463.4" y1="238.2" x2="463.4" y2="215.1"/>
				<line class="st4" x1="475.9" y1="238.2" x2="475.9" y2="215.1"/>
				<line class="st4" x1="376.2" y1="238.2" x2="376.2" y2="215.1"/>
				<line class="st4" x1="388.6" y1="238.2" x2="388.6" y2="215.1"/>
				<line class="st4" x1="401.1" y1="238.2" x2="401.1" y2="215.1"/>
				<line class="st4" x1="413.6" y1="238.2" x2="413.6" y2="215.1"/>
			</g>
			<line class="st3" x1="363.7" y1="238.2" x2="363.7" y2="197.2"/>
		</g>
	</g>
	<g>
		<g>
			<path class="st1" d="M1350.4,176.5c1.1,0,1.9-0.4,2.6-1.1c0.7-0.8,1-1.8,1-3.1v-1c-0.5,0.6-1.1,1.1-1.8,1.4
				c-0.7,0.3-1.4,0.5-2.2,0.5c-2.1,0-3.7-0.7-4.9-2.1c-1.2-1.4-1.8-3.3-1.8-5.7c0-2.3,0.7-4.2,2.2-5.8c1.5-1.6,3.4-2.4,5.7-2.4
				c2.3,0,4.2,0.8,5.7,2.5s2.2,3.9,2.2,6.8v5.4c0,2.6-0.8,4.7-2.5,6.3c-1.7,1.6-3.8,2.4-6.4,2.4c-0.8,0-1.6-0.1-2.4-0.3
				c-0.8-0.2-1.6-0.4-2.4-0.7l0.5-3.8c0.7,0.2,1.4,0.4,2.1,0.5C1348.8,176.4,1349.5,176.5,1350.4,176.5z M1351.2,169.3
				c0.6,0,1.1-0.1,1.6-0.3c0.5-0.2,0.9-0.5,1.2-0.9v-2.3c0-1.5-0.2-2.6-0.7-3.4c-0.5-0.8-1.1-1.2-1.9-1.2c-0.8,0-1.5,0.4-1.9,1.2
				c-0.5,0.8-0.7,1.8-0.7,2.8c0,1.2,0.2,2.2,0.6,3C1349.8,168.9,1350.4,169.3,1351.2,169.3z"/>
			<path class="st1" d="M1377.9,171.2c0,3.1-0.7,5.4-2.1,7c-1.4,1.6-3.3,2.4-5.8,2.4c-2.4,0-4.4-0.8-5.8-2.4c-1.4-1.6-2.1-3.9-2.1-7
				v-4.8c0-3.1,0.7-5.4,2.1-7c1.4-1.6,3.3-2.4,5.8-2.4c2.4,0,4.4,0.8,5.8,2.4c1.4,1.6,2.1,3.9,2.1,7V171.2z M1372.6,166.1
				c0-1.7-0.2-3-0.7-3.8c-0.5-0.8-1.1-1.1-2-1.1c-0.9,0-1.5,0.4-2,1.1c-0.4,0.8-0.7,2-0.7,3.8v5.5c0,1.8,0.2,3,0.7,3.8
				c0.4,0.8,1.1,1.1,2,1.1c0.9,0,1.5-0.4,2-1.1c0.4-0.8,0.7-2,0.7-3.8V166.1z"/>
		</g>
	</g>
	<g>
		<g>
			<path class="st1" d="M1234.3,163.5c0,1.1-0.3,2.1-0.9,3c-0.6,0.9-1.4,1.6-2.4,2.1c1.2,0.5,2.1,1.3,2.7,2.2c0.7,0.9,1,2,1,3.2
				c0,2.1-0.7,3.8-2.2,4.9c-1.5,1.1-3.4,1.7-5.7,1.7c-2.4,0-4.3-0.6-5.7-1.7s-2.2-2.8-2.2-4.9c0-1.2,0.3-2.3,1-3.2
				c0.7-0.9,1.6-1.7,2.7-2.2c-1-0.5-1.8-1.2-2.4-2.1c-0.6-0.9-0.9-1.9-0.9-3c0-2,0.7-3.6,2.1-4.7c1.4-1.1,3.2-1.7,5.4-1.7
				c2.2,0,4.1,0.6,5.4,1.7C1233.6,159.9,1234.3,161.5,1234.3,163.5z M1229.5,173.5c0-0.9-0.2-1.6-0.7-2.1c-0.5-0.5-1.1-0.8-1.9-0.8
				c-0.8,0-1.4,0.3-1.9,0.8c-0.5,0.5-0.7,1.2-0.7,2.1c0,0.9,0.2,1.6,0.7,2.2c0.5,0.5,1.1,0.8,1.9,0.8c0.8,0,1.4-0.3,1.9-0.8
				C1229.2,175.2,1229.5,174.4,1229.5,173.5z M1229,163.8c0-0.8-0.2-1.5-0.6-1.9s-0.9-0.7-1.6-0.7c-0.7,0-1.2,0.2-1.6,0.7
				c-0.4,0.5-0.6,1.1-0.6,1.9c0,0.8,0.2,1.5,0.6,2c0.4,0.5,0.9,0.7,1.6,0.7c0.7,0,1.2-0.2,1.6-0.7
				C1228.8,165.3,1229,164.7,1229,163.8z"/>
			<path class="st1" d="M1253.3,171.2c0,3.1-0.7,5.4-2.1,7c-1.4,1.6-3.3,2.4-5.8,2.4c-2.4,0-4.4-0.8-5.8-2.4c-1.4-1.6-2.1-3.9-2.1-7
				v-4.8c0-3.1,0.7-5.4,2.1-7c1.4-1.6,3.3-2.4,5.8-2.4c2.4,0,4.4,0.8,5.8,2.4c1.4,1.6,2.1,3.9,2.1,7V171.2z M1248,166.1
				c0-1.7-0.2-3-0.7-3.8c-0.5-0.8-1.1-1.1-2-1.1c-0.9,0-1.5,0.4-2,1.1c-0.4,0.8-0.7,2-0.7,3.8v5.5c0,1.8,0.2,3,0.7,3.8
				c0.4,0.8,1.1,1.1,2,1.1c0.9,0,1.5-0.4,2-1.1c0.4-0.8,0.7-2,0.7-3.8V166.1z"/>
		</g>
	</g>
	<g>
		<g>
			<path class="st1" d="M1110.1,161.5c-2.3,2.6-3.8,5.1-4.7,7.6c-0.9,2.5-1.5,5.4-1.8,8.9l-0.2,2.2h-5.3l0.2-2.2
				c0.3-3.2,1-6.3,2.1-9c1.1-2.8,2.7-5.3,4.6-7.4h-11.3v-4.1h16.4V161.5z"/>
			<path class="st1" d="M1128.6,171.2c0,3.1-0.7,5.4-2.1,7c-1.4,1.6-3.3,2.4-5.8,2.4c-2.4,0-4.4-0.8-5.8-2.4c-1.4-1.6-2.1-3.9-2.1-7
				v-4.8c0-3.1,0.7-5.4,2.1-7c1.4-1.6,3.3-2.4,5.8-2.4c2.4,0,4.4,0.8,5.8,2.4c1.4,1.6,2.1,3.9,2.1,7V171.2z M1123.4,166.1
				c0-1.7-0.2-3-0.7-3.8c-0.5-0.8-1.1-1.1-2-1.1c-0.9,0-1.5,0.4-2,1.1c-0.4,0.8-0.7,2-0.7,3.8v5.5c0,1.8,0.2,3,0.7,3.8
				c0.4,0.8,1.1,1.1,2,1.1c0.9,0,1.5-0.4,2-1.1c0.4-0.8,0.7-2,0.7-3.8V166.1z"/>
		</g>
	</g>
	<g>
		<g>
			<path class="st1" d="M979,157.1c0.9,0,1.7,0.1,2.4,0.2c0.7,0.2,1.5,0.4,2.3,0.7l-0.9,3.8c-0.7-0.2-1.4-0.4-1.9-0.5
				s-1.2-0.2-1.9-0.2c-1.2,0-2.3,0.4-3,1.3c-0.8,0.9-1.1,2.2-1.1,3.9l0,0.1c0.5-0.5,1.1-0.9,1.8-1.2c0.8-0.3,1.6-0.4,2.6-0.4
				c2,0,3.6,0.7,4.7,2.2c1.1,1.5,1.7,3.3,1.7,5.6c0,2.2-0.7,4.1-2.2,5.6c-1.5,1.5-3.4,2.2-5.7,2.2c-2.5,0-4.5-0.8-6-2.5
				c-1.5-1.6-2.3-3.9-2.3-6.7v-4.6c0-3,0.9-5.4,2.6-7.1S976.3,157.1,979,157.1z M978,168.9c-0.7,0-1.4,0.1-1.9,0.3
				c-0.5,0.2-0.9,0.5-1.2,0.8v1.3c0,1.6,0.3,2.9,0.8,3.8c0.5,0.9,1.3,1.3,2.2,1.3c0.8,0,1.4-0.4,1.9-1.1s0.8-1.6,0.8-2.7
				c0-1.2-0.2-2.1-0.7-2.7C979.4,169.3,978.8,168.9,978,168.9z"/>
			<path class="st1" d="M1004,171.2c0,3.1-0.7,5.4-2.1,7c-1.4,1.6-3.3,2.4-5.8,2.4c-2.4,0-4.4-0.8-5.8-2.4c-1.4-1.6-2.1-3.9-2.1-7
				v-4.8c0-3.1,0.7-5.4,2.1-7c1.4-1.6,3.3-2.4,5.8-2.4c2.4,0,4.4,0.8,5.8,2.4c1.4,1.6,2.1,3.9,2.1,7V171.2z M998.7,166.1
				c0-1.7-0.2-3-0.7-3.8c-0.5-0.8-1.1-1.1-2-1.1c-0.9,0-1.5,0.4-2,1.1c-0.4,0.8-0.7,2-0.7,3.8v5.5c0,1.8,0.2,3,0.7,3.8
				c0.4,0.8,1.1,1.1,2,1.1c0.9,0,1.5-0.4,2-1.1c0.4-0.8,0.7-2,0.7-3.8V166.1z"/>
		</g>
	</g>
	<g>
		<g>
			<path class="st1" d="M845.5,170.2l1.3-12.8h13.3v4.1h-9l-0.6,4.8c0.4-0.3,0.9-0.5,1.5-0.7s1.2-0.3,2-0.3c2.2,0,3.9,0.6,5.1,1.9
				c1.2,1.3,1.8,3.2,1.8,5.7c0,2.1-0.7,3.9-2,5.4c-1.4,1.5-3.3,2.2-5.9,2.2c-2.2,0-4-0.6-5.6-1.8c-1.6-1.2-2.4-2.8-2.3-4.8l0-0.1
				l5.2-0.3c0,0.9,0.3,1.6,0.8,2.1c0.5,0.5,1.2,0.8,2,0.8c1,0,1.6-0.3,2-1c0.4-0.7,0.6-1.5,0.6-2.6c0-1.2-0.2-2.2-0.7-3
				c-0.4-0.7-1.2-1.1-2.1-1.1c-0.7,0-1.3,0.2-1.7,0.5c-0.4,0.3-0.7,0.7-0.9,1.1L845.5,170.2z"/>
			<path class="st1" d="M879.4,171.2c0,3.1-0.7,5.4-2.1,7c-1.4,1.6-3.3,2.4-5.8,2.4c-2.4,0-4.4-0.8-5.8-2.4c-1.4-1.6-2.1-3.9-2.1-7
				v-4.8c0-3.1,0.7-5.4,2.1-7c1.4-1.6,3.3-2.4,5.8-2.4c2.4,0,4.4,0.8,5.8,2.4c1.4,1.6,2.1,3.9,2.1,7V171.2z M874.1,166.1
				c0-1.7-0.2-3-0.7-3.8c-0.5-0.8-1.1-1.1-2-1.1c-0.9,0-1.5,0.4-2,1.1c-0.4,0.8-0.7,2-0.7,3.8v5.5c0,1.8,0.2,3,0.7,3.8
				c0.4,0.8,1.1,1.1,2,1.1c0.9,0,1.5-0.4,2-1.1c0.4-0.8,0.7-2,0.7-3.8V166.1z"/>
		</g>
	</g>
	<g>
		<g>
			<path class="st1" d="M734.4,171.3h2.3v4.1h-2.3v4.8h-5.3v-4.8h-8.8l-0.3-3.2l9.1-14.7v0h5.3V171.3z M724.7,171.3h4.4v-7l-0.1,0
				l-0.4,0.6L724.7,171.3z"/>
			<path class="st1" d="M754.8,171.2c0,3.1-0.7,5.4-2.1,7c-1.4,1.6-3.3,2.4-5.8,2.4c-2.4,0-4.4-0.8-5.8-2.4c-1.4-1.6-2.1-3.9-2.1-7
				v-4.8c0-3.1,0.7-5.4,2.1-7c1.4-1.6,3.3-2.4,5.8-2.4c2.4,0,4.4,0.8,5.8,2.4c1.4,1.6,2.1,3.9,2.1,7V171.2z M749.5,166.1
				c0-1.7-0.2-3-0.7-3.8c-0.5-0.8-1.1-1.1-2-1.1c-0.9,0-1.5,0.4-2,1.1c-0.4,0.8-0.7,2-0.7,3.8v5.5c0,1.8,0.2,3,0.7,3.8
				c0.4,0.8,1.1,1.1,2,1.1c0.9,0,1.5-0.4,2-1.1c0.4-0.8,0.7-2,0.7-3.8V166.1z"/>
		</g>
	</g>
	<g>
		<g>
			<path class="st1" d="M600.6,166.6h2.5c0.9,0,1.7-0.3,2.2-0.8c0.5-0.5,0.8-1.2,0.8-2.1c0-0.7-0.2-1.3-0.7-1.8
				c-0.5-0.5-1.1-0.7-2-0.7c-0.7,0-1.3,0.2-1.8,0.6c-0.5,0.4-0.8,0.9-0.8,1.5h-5.1l0-0.1c-0.1-1.8,0.7-3.3,2.1-4.4
				c1.5-1.1,3.3-1.7,5.4-1.7c2.5,0,4.4,0.6,5.9,1.7c1.5,1.1,2.2,2.7,2.2,4.8c0,1-0.3,2-1,2.9c-0.6,0.9-1.5,1.5-2.6,2
				c1.2,0.4,2.2,1.1,2.9,2c0.7,0.9,1,2,1,3.3c0,2.1-0.8,3.7-2.4,4.9c-1.6,1.2-3.6,1.8-6.1,1.8c-2.1,0-4-0.6-5.6-1.7
				c-1.6-1.1-2.4-2.7-2.3-4.9l0-0.1h5.2c0,0.7,0.3,1.3,0.9,1.8c0.6,0.5,1.3,0.7,2.1,0.7c0.9,0,1.7-0.3,2.2-0.8
				c0.6-0.5,0.8-1.2,0.8-2c0-1.1-0.3-1.9-0.9-2.4c-0.6-0.5-1.4-0.8-2.4-0.8h-2.5V166.6z"/>
			<path class="st1" d="M630.1,171.2c0,3.1-0.7,5.4-2.1,7c-1.4,1.6-3.3,2.4-5.8,2.4c-2.4,0-4.4-0.8-5.8-2.4c-1.4-1.6-2.1-3.9-2.1-7
				v-4.8c0-3.1,0.7-5.4,2.1-7c1.4-1.6,3.3-2.4,5.8-2.4c2.4,0,4.4,0.8,5.8,2.4c1.4,1.6,2.1,3.9,2.1,7V171.2z M624.9,166.1
				c0-1.7-0.2-3-0.7-3.8c-0.5-0.8-1.1-1.1-2-1.1c-0.9,0-1.5,0.4-2,1.1c-0.4,0.8-0.7,2-0.7,3.8v5.5c0,1.8,0.2,3,0.7,3.8
				c0.4,0.8,1.1,1.1,2,1.1c0.9,0,1.5-0.4,2-1.1c0.4-0.8,0.7-2,0.7-3.8V166.1z"/>
		</g>
	</g>
	<g>
		<g>
			<path class="st1" d="M487.1,180.2h-15.9v-3.4l7.3-7.7c0.9-1.1,1.6-2,2-2.8c0.4-0.8,0.7-1.6,0.7-2.2c0-0.9-0.2-1.6-0.7-2.1
				c-0.4-0.5-1.1-0.8-2-0.8c-0.8,0-1.4,0.3-1.9,1s-0.7,1.5-0.7,2.6h-5.2l0-0.1c-0.1-2.1,0.6-3.9,2.1-5.4c1.4-1.5,3.3-2.2,5.7-2.2
				c2.5,0,4.5,0.6,5.9,1.8c1.4,1.2,2.1,2.9,2.1,5c0,1.4-0.4,2.7-1.1,3.8c-0.7,1.1-2.1,2.7-4.1,4.9l-3.1,3.3l0,0.1h8.9V180.2z"/>
			<path class="st1" d="M505.5,171.2c0,3.1-0.7,5.4-2.1,7c-1.4,1.6-3.3,2.4-5.8,2.4c-2.4,0-4.4-0.8-5.8-2.4c-1.4-1.6-2.1-3.9-2.1-7
				v-4.8c0-3.1,0.7-5.4,2.1-7c1.4-1.6,3.3-2.4,5.8-2.4c2.4,0,4.4,0.8,5.8,2.4c1.4,1.6,2.1,3.9,2.1,7V171.2z M500.2,166.1
				c0-1.7-0.2-3-0.7-3.8c-0.5-0.8-1.1-1.1-2-1.1c-0.9,0-1.5,0.4-2,1.1c-0.4,0.8-0.7,2-0.7,3.8v5.5c0,1.8,0.2,3,0.7,3.8
				c0.4,0.8,1.1,1.1,2,1.1c0.9,0,1.5-0.4,2-1.1c0.4-0.8,0.7-2,0.7-3.8V166.1z"/>
		</g>
	</g>
	<g>
		<g>
			<path class="st1" d="M632.5,71.3h2.2v2.3h-2.2v3.8h-2.8v-3.8h-7.3l-0.1-1.7l7.3-11.5h2.9V71.3z M625.1,71.3h4.6v-6.9l-0.1,0
				l-0.2,0.5L625.1,71.3z"/>
			<path class="st1" d="M639.3,77.4h-2.8v-2.7h2.8V77.4z"/>
			<path class="st1" d="M642.6,69.8l1-9.4h9v2.5h-6.6l-0.5,4.3c0.3-0.2,0.7-0.5,1.2-0.6s0.9-0.2,1.5-0.3c1.6,0,2.9,0.5,3.8,1.5
				s1.4,2.4,1.4,4.2c0,1.7-0.5,3-1.4,4.1s-2.3,1.6-4.1,1.6c-1.5,0-2.8-0.4-3.8-1.2s-1.5-2-1.5-3.5l0-0.1l2.7-0.1
				c0,0.8,0.2,1.5,0.7,1.9s1.1,0.7,1.9,0.7c0.9,0,1.6-0.3,2-0.9s0.7-1.4,0.7-2.5c0-1-0.2-1.9-0.7-2.5s-1.2-1-2-1
				c-0.8,0-1.4,0.1-1.7,0.4c-0.4,0.3-0.7,0.6-0.8,1.1L642.6,69.8z"/>
		</g>
	</g>
	<g>
		<g>
			<path class="st1" d="M703,300.7h2.2v2.3H703v3.8h-2.8V303h-7.3l-0.1-1.7l7.3-11.5h2.9V300.7z M695.6,300.7h4.6v-6.9l-0.1,0
				l-0.2,0.5L695.6,300.7z"/>
			<path class="st1" d="M717.6,300.2c0,2.2-0.5,3.9-1.5,5.1s-2.4,1.7-4.1,1.7c-1.7,0-3.1-0.6-4.1-1.7s-1.5-2.9-1.5-5.1v-3.9
				c0-2.2,0.5-3.9,1.5-5.1s2.4-1.8,4.1-1.8c1.7,0,3.1,0.6,4.1,1.8s1.5,2.9,1.5,5.1V300.2z M714.7,295.9c0-1.4-0.2-2.4-0.7-3.1
				c-0.5-0.7-1.2-1-2.1-1s-1.6,0.3-2,1c-0.5,0.7-0.7,1.7-0.7,3.1v4.7c0,1.4,0.2,2.4,0.7,3.1s1.2,1,2.1,1s1.6-0.3,2-1
				s0.7-1.7,0.7-3.1V295.9z"/>
		</g>
	</g>
	<g>
		<g>
			<path class="st1" d="M733.3,299.2l1-9.4h9v2.5h-6.6l-0.5,4.3c0.3-0.2,0.7-0.5,1.2-0.6s0.9-0.2,1.5-0.3c1.6,0,2.9,0.5,3.8,1.5
				s1.4,2.4,1.4,4.2c0,1.7-0.5,3-1.4,4.1s-2.3,1.6-4.1,1.6c-1.5,0-2.8-0.4-3.8-1.2s-1.5-2-1.5-3.5l0-0.1l2.7-0.1
				c0,0.8,0.2,1.5,0.7,1.9s1.1,0.7,1.9,0.7c0.9,0,1.6-0.3,2-0.9s0.7-1.4,0.7-2.5c0-1-0.2-1.9-0.7-2.5s-1.2-1-2-1
				c-0.8,0-1.4,0.1-1.7,0.4s-0.7,0.6-0.8,1.1L733.3,299.2z"/>
			<path class="st1" d="M756.9,300.2c0,2.2-0.5,3.9-1.5,5.1s-2.4,1.7-4.1,1.7c-1.7,0-3.1-0.6-4.1-1.7s-1.5-2.9-1.5-5.1v-3.9
				c0-2.2,0.5-3.9,1.5-5.1s2.4-1.8,4.1-1.8c1.7,0,3.1,0.6,4.1,1.8s1.5,2.9,1.5,5.1V300.2z M754,295.9c0-1.4-0.2-2.4-0.7-3.1
				c-0.5-0.7-1.2-1-2.1-1s-1.6,0.3-2,1c-0.5,0.7-0.7,1.7-0.7,3.1v4.7c0,1.4,0.2,2.4,0.7,3.1s1.2,1,2.1,1s1.6-0.3,2-1
				s0.7-1.7,0.7-3.1V295.9z"/>
		</g>
	</g>
	<g>
		<g>
			<path class="st1" d="M782.1,289.5c0.6,0,1.2,0.1,1.8,0.2s1.1,0.3,1.5,0.5l-0.5,2.2c-0.4-0.2-0.9-0.3-1.3-0.4s-0.9-0.2-1.4-0.2
				c-1.1,0-2.1,0.4-2.7,1.3s-1,2.1-1,3.6v0.1c0.5-0.4,1-0.8,1.6-1s1.3-0.4,2-0.4c1.5,0,2.7,0.5,3.6,1.6s1.3,2.4,1.3,4.1
				c0,1.7-0.5,3.2-1.5,4.3s-2.3,1.7-4,1.7c-1.7,0-3.2-0.6-4.3-1.8s-1.7-2.9-1.7-5.1v-3.3c0-2.2,0.6-4,1.9-5.3
				S780.2,289.5,782.1,289.5z M781.3,297.6c-0.7,0-1.3,0.1-1.8,0.4c-0.5,0.3-0.9,0.6-1.1,1v1.2c0,1.4,0.3,2.6,0.9,3.3
				s1.3,1.2,2.2,1.2c0.8,0,1.5-0.4,2-1.1s0.7-1.6,0.7-2.6c0-1-0.2-1.9-0.8-2.5S782.1,297.6,781.3,297.6z"/>
			<path class="st1" d="M799.5,300.2c0,2.2-0.5,3.9-1.5,5.1s-2.4,1.7-4.1,1.7c-1.7,0-3.1-0.6-4.1-1.7s-1.5-2.9-1.5-5.1v-3.9
				c0-2.2,0.5-3.9,1.5-5.1s2.4-1.8,4.1-1.8c1.7,0,3.1,0.6,4.1,1.8s1.5,2.9,1.5,5.1V300.2z M796.7,295.9c0-1.4-0.2-2.4-0.7-3.1
				c-0.5-0.7-1.2-1-2.1-1s-1.6,0.3-2,1c-0.5,0.7-0.7,1.7-0.7,3.1v4.7c0,1.4,0.2,2.4,0.7,3.1s1.2,1,2.1,1s1.6-0.3,2-1
				s0.7-1.7,0.7-3.1V295.9z"/>
		</g>
	</g>
	<g>
		<g>
			<path class="st1" d="M836.5,292c-2,2.3-3.3,4.4-4,6.2s-1.2,4.1-1.5,6.7l-0.2,1.8H828l0.2-1.8c0.3-2.6,0.9-4.9,1.8-7
				s2.2-4.1,3.7-6h-9v-2.3h11.8V292z"/>
			<path class="st1" d="M849.4,300.2c0,2.2-0.5,3.9-1.5,5.1s-2.4,1.7-4.1,1.7c-1.7,0-3.1-0.6-4.1-1.7s-1.5-2.9-1.5-5.1v-3.9
				c0-2.2,0.5-3.9,1.5-5.1s2.4-1.8,4.1-1.8c1.7,0,3.1,0.6,4.1,1.8s1.5,2.9,1.5,5.1V300.2z M846.5,295.9c0-1.4-0.2-2.4-0.7-3.1
				c-0.5-0.7-1.2-1-2.1-1s-1.6,0.3-2,1c-0.5,0.7-0.7,1.7-0.7,3.1v4.7c0,1.4,0.2,2.4,0.7,3.1s1.2,1,2.1,1s1.6-0.3,2-1
				s0.7-1.7,0.7-3.1V295.9z"/>
		</g>
	</g>
	<g>
		<g>
			<path class="st1" d="M898.3,294.2c0,0.9-0.2,1.6-0.7,2.3s-1.1,1.2-1.9,1.5c0.9,0.4,1.7,0.9,2.2,1.6s0.8,1.5,0.8,2.5
				c0,1.6-0.5,2.8-1.6,3.6s-2.4,1.3-4.1,1.3c-1.7,0-3.1-0.4-4.1-1.3s-1.6-2.1-1.6-3.6c0-0.9,0.3-1.8,0.8-2.5s1.3-1.3,2.2-1.6
				c-0.8-0.3-1.4-0.8-1.9-1.5s-0.7-1.4-0.7-2.3c0-1.5,0.5-2.7,1.4-3.5s2.2-1.2,3.8-1.2c1.6,0,2.8,0.4,3.8,1.2
				S898.3,292.7,898.3,294.2z M895.9,302c0-0.8-0.3-1.5-0.8-2s-1.2-0.8-2-0.8c-0.8,0-1.5,0.3-2,0.8s-0.8,1.2-0.8,2
				c0,0.9,0.3,1.5,0.8,2s1.2,0.7,2.1,0.7c0.8,0,1.5-0.2,2-0.7S895.9,302.9,895.9,302z M895.5,294.3c0-0.8-0.2-1.4-0.7-1.8
				s-1-0.7-1.7-0.7c-0.7,0-1.3,0.2-1.7,0.7s-0.6,1.1-0.6,1.9c0,0.8,0.2,1.4,0.7,1.9s1,0.7,1.8,0.7c0.7,0,1.3-0.2,1.7-0.7
				S895.5,295.1,895.5,294.3z"/>
			<path class="st1" d="M911.7,300.2c0,2.2-0.5,3.9-1.5,5.1s-2.4,1.7-4.1,1.7c-1.7,0-3.1-0.6-4.1-1.7s-1.5-2.9-1.5-5.1v-3.9
				c0-2.2,0.5-3.9,1.5-5.1s2.4-1.8,4.1-1.8c1.7,0,3.1,0.6,4.1,1.8s1.5,2.9,1.5,5.1V300.2z M908.9,295.9c0-1.4-0.2-2.4-0.7-3.1
				c-0.5-0.7-1.2-1-2.1-1s-1.6,0.3-2,1c-0.5,0.7-0.7,1.7-0.7,3.1v4.7c0,1.4,0.2,2.4,0.7,3.1s1.2,1,2.1,1s1.6-0.3,2-1
				s0.7-1.7,0.7-3.1V295.9z"/>
		</g>
	</g>
	<g>
		<g>
			<path class="st1" d="M992,304.8c1,0,1.8-0.4,2.5-1.1c0.6-0.8,0.9-1.8,0.9-3.3v-0.8c-0.4,0.5-0.8,0.9-1.4,1.2s-1.2,0.4-1.8,0.4
				c-1.6,0-2.9-0.5-3.8-1.5s-1.4-2.4-1.4-4.2c0-1.7,0.5-3.1,1.6-4.2s2.4-1.7,3.9-1.7c1.8,0,3.2,0.6,4.2,1.7s1.6,2.8,1.6,5v4
				c0,2.2-0.6,3.8-1.7,5s-2.7,1.8-4.5,1.8c-0.6,0-1.2-0.1-1.8-0.2s-1.2-0.3-1.7-0.5l0.4-2.2c0.5,0.2,1,0.4,1.5,0.5
				S991.4,304.8,992,304.8z M992.4,298.9c0.7,0,1.3-0.1,1.8-0.4s0.9-0.6,1.1-1.1v-1.5c0-1.4-0.3-2.4-0.8-3.1s-1.2-1-2.2-1
				c-0.8,0-1.4,0.3-1.9,1s-0.8,1.5-0.8,2.6c0,1.1,0.2,1.9,0.7,2.6S991.6,298.9,992.4,298.9z"/>
			<path class="st1" d="M1011.4,300.2c0,2.2-0.5,3.9-1.5,5.1s-2.4,1.7-4.1,1.7c-1.7,0-3.1-0.6-4.1-1.7s-1.5-2.9-1.5-5.1v-3.9
				c0-2.2,0.5-3.9,1.5-5.1s2.4-1.8,4.1-1.8c1.7,0,3.1,0.6,4.1,1.8s1.5,2.9,1.5,5.1V300.2z M1008.6,295.9c0-1.4-0.2-2.4-0.7-3.1
				c-0.5-0.7-1.2-1-2.1-1s-1.6,0.3-2,1c-0.5,0.7-0.7,1.7-0.7,3.1v4.7c0,1.4,0.2,2.4,0.7,3.1s1.2,1,2.1,1s1.6-0.3,2-1
				s0.7-1.7,0.7-3.1V295.9z"/>
		</g>
	</g>
	<g>
		<g>
			<path class="st1" d="M1075.1,306.8h-2.8v-14.4h-3.5v-2.1l6.3-0.6V306.8z"/>
			<path class="st1" d="M1092.1,300.2c0,2.2-0.5,3.9-1.5,5.1s-2.4,1.7-4.1,1.7c-1.7,0-3.1-0.6-4.1-1.7s-1.5-2.9-1.5-5.1v-3.9
				c0-2.2,0.5-3.9,1.5-5.1s2.4-1.8,4.1-1.8c1.7,0,3.1,0.6,4.1,1.8s1.5,2.9,1.5,5.1V300.2z M1089.3,295.9c0-1.4-0.2-2.4-0.7-3.1
				c-0.5-0.7-1.2-1-2.1-1s-1.6,0.3-2,1c-0.5,0.7-0.7,1.7-0.7,3.1v4.7c0,1.4,0.2,2.4,0.7,3.1s1.2,1,2.1,1s1.6-0.3,2-1
				s0.7-1.7,0.7-3.1V295.9z"/>
			<path class="st1" d="M1105.2,300.2c0,2.2-0.5,3.9-1.5,5.1s-2.4,1.7-4.1,1.7c-1.7,0-3.1-0.6-4.1-1.7s-1.5-2.9-1.5-5.1v-3.9
				c0-2.2,0.5-3.9,1.5-5.1s2.4-1.8,4.1-1.8c1.7,0,3.1,0.6,4.1,1.8s1.5,2.9,1.5,5.1V300.2z M1102.3,295.9c0-1.4-0.2-2.4-0.7-3.1
				c-0.5-0.7-1.2-1-2.1-1s-1.6,0.3-2,1c-0.5,0.7-0.7,1.7-0.7,3.1v4.7c0,1.4,0.2,2.4,0.7,3.1s1.2,1,2.1,1s1.6-0.3,2-1
				s0.7-1.7,0.7-3.1V295.9z"/>
		</g>
	</g>
	<g>
		<g>
			<path class="st1" d="M1174.8,306.8h-2.8v-14.4h-3.5v-2.1l6.3-0.6V306.8z"/>
			<path class="st1" d="M1187.8,306.8h-2.8v-14.4h-3.5v-2.1l6.3-0.6V306.8z"/>
			<path class="st1" d="M1204.9,300.2c0,2.2-0.5,3.9-1.5,5.1s-2.4,1.7-4.1,1.7c-1.7,0-3.1-0.6-4.1-1.7s-1.5-2.9-1.5-5.1v-3.9
				c0-2.2,0.5-3.9,1.5-5.1s2.4-1.8,4.1-1.8c1.7,0,3.1,0.6,4.1,1.8s1.5,2.9,1.5,5.1V300.2z M1202,295.9c0-1.4-0.2-2.4-0.7-3.1
				c-0.5-0.7-1.2-1-2.1-1s-1.6,0.3-2,1c-0.5,0.7-0.7,1.7-0.7,3.1v4.7c0,1.4,0.2,2.4,0.7,3.1s1.2,1,2.1,1s1.6-0.3,2-1
				s0.7-1.7,0.7-3.1V295.9z"/>
		</g>
	</g>
	<g>
		<g>
			<path class="st1" d="M1274.5,306.8h-2.8v-14.4h-3.5v-2.1l6.3-0.6V306.8z"/>
			<path class="st1" d="M1291.7,306.8h-11.3v-2l5.6-6c0.9-1,1.5-1.8,1.9-2.4s0.5-1.3,0.5-1.9c0-0.8-0.2-1.4-0.7-1.9s-1-0.8-1.8-0.8
				c-1,0-1.7,0.3-2.2,0.8s-0.7,1.3-0.7,2.3h-2.8l0-0.1c0-1.5,0.5-2.8,1.5-3.8s2.4-1.6,4.2-1.6c1.6,0,2.9,0.5,3.9,1.4
				s1.4,2.1,1.4,3.6c0,1-0.3,1.9-0.8,2.8s-1.4,2-2.6,3.2l-3.8,4l0,0.1h7.7V306.8z"/>
			<path class="st1" d="M1304.6,300.2c0,2.2-0.5,3.9-1.5,5.1s-2.4,1.7-4.1,1.7c-1.7,0-3.1-0.6-4.1-1.7s-1.5-2.9-1.5-5.1v-3.9
				c0-2.2,0.5-3.9,1.5-5.1s2.4-1.8,4.1-1.8c1.7,0,3.1,0.6,4.1,1.8s1.5,2.9,1.5,5.1V300.2z M1301.7,295.9c0-1.4-0.2-2.4-0.7-3.1
				c-0.5-0.7-1.2-1-2.1-1s-1.6,0.3-2,1c-0.5,0.7-0.7,1.7-0.7,3.1v4.7c0,1.4,0.2,2.4,0.7,3.1s1.2,1,2.1,1s1.6-0.3,2-1
				s0.7-1.7,0.7-3.1V295.9z"/>
		</g>
	</g>
	<g>
		<g>
			<path class="st1" d="M409.1,54h-2.6l-6.9-11.4l-0.1,0V54h-2.6V38.4h2.6l6.9,11.4l0.1,0V38.4h2.6V54z"/>
			<path class="st1" d="M411.1,48.1c0-1.7,0.5-3.1,1.4-4.3c1-1.1,2.3-1.7,3.9-1.7c1.7,0,3,0.6,3.9,1.7c1,1.1,1.4,2.5,1.4,4.3v0.2
				c0,1.7-0.5,3.2-1.4,4.3c-0.9,1.1-2.2,1.6-3.9,1.6c-1.7,0-3-0.6-3.9-1.7c-0.9-1.1-1.4-2.5-1.4-4.3V48.1z M413.8,48.3
				c0,1.1,0.2,2.1,0.7,2.8c0.4,0.7,1.1,1.1,2.1,1.1c0.9,0,1.6-0.4,2-1.1c0.5-0.7,0.7-1.6,0.7-2.8v-0.2c0-1.1-0.2-2-0.7-2.7
				c-0.5-0.7-1.1-1.1-2.1-1.1c-0.9,0-1.6,0.4-2,1.1c-0.4,0.7-0.7,1.6-0.7,2.7V48.3z"/>
			<path class="st1" d="M428,48.4c0-1.9,0.4-3.3,1.2-4.5c0.8-1.1,1.9-1.7,3.4-1.7c0.6,0,1.2,0.1,1.7,0.4c0.5,0.3,0.9,0.6,1.3,1.1
				v-6.4h2.6V54h-2.2l-0.3-1.4c-0.4,0.5-0.8,1-1.3,1.2c-0.5,0.3-1.1,0.4-1.8,0.4c-1.4,0-2.5-0.5-3.3-1.6s-1.2-2.4-1.2-4.1V48.4z
				 M430.6,48.6c0,1.1,0.2,1.9,0.6,2.6c0.4,0.6,1.1,1,2,1c0.6,0,1-0.1,1.4-0.4c0.4-0.2,0.7-0.6,0.9-1v-5.1c-0.2-0.4-0.6-0.8-0.9-1
				c-0.4-0.2-0.8-0.4-1.4-0.4c-0.9,0-1.5,0.4-2,1.1c-0.4,0.7-0.6,1.7-0.6,2.9V48.6z"/>
			<path class="st1" d="M447.4,54c-0.1-0.3-0.2-0.6-0.2-0.9c-0.1-0.3-0.1-0.6-0.1-0.8c-0.4,0.5-0.8,1-1.4,1.4
				c-0.6,0.4-1.2,0.6-2,0.6c-1.2,0-2.1-0.3-2.8-0.9c-0.6-0.6-1-1.5-1-2.6c0-1.1,0.4-2,1.3-2.6c0.9-0.6,2.1-0.9,3.7-0.9h2v-1
				c0-0.6-0.2-1.1-0.5-1.4s-0.9-0.5-1.5-0.5c-0.6,0-1.1,0.1-1.4,0.4c-0.4,0.3-0.5,0.7-0.5,1.1h-2.5l0-0.1c0-0.9,0.4-1.7,1.2-2.4
				c0.9-0.7,2-1.1,3.4-1.1c1.4,0,2.4,0.3,3.3,1s1.2,1.7,1.2,3v5.2c0,0.5,0,0.9,0.1,1.4c0.1,0.4,0.2,0.9,0.3,1.3H447.4z M444.2,52.1
				c0.7,0,1.3-0.2,1.8-0.5c0.5-0.3,0.9-0.7,1-1.1v-1.7h-2.1c-0.8,0-1.4,0.2-1.8,0.6c-0.4,0.4-0.6,0.8-0.6,1.3c0,0.4,0.1,0.8,0.4,1.1
				C443.2,52,443.6,52.1,444.2,52.1z"/>
			<path class="st1" d="M455,39.6v2.8h2.1v1.9H455v6.4c0,0.5,0.1,0.8,0.3,1c0.2,0.2,0.5,0.3,0.8,0.3c0.1,0,0.3,0,0.4,0
				c0.1,0,0.3-0.1,0.4-0.1l0.3,1.9c-0.2,0.1-0.5,0.2-0.8,0.3c-0.3,0.1-0.6,0.1-1,0.1c-1,0-1.7-0.3-2.3-0.8c-0.5-0.6-0.8-1.4-0.8-2.6
				v-6.4h-1.8v-1.9h1.8v-2.8H455z"/>
			<path class="st1" d="M465.9,54c-0.1-0.3-0.2-0.6-0.2-0.9c-0.1-0.3-0.1-0.6-0.1-0.8c-0.4,0.5-0.8,1-1.4,1.4
				c-0.6,0.4-1.2,0.6-2,0.6c-1.2,0-2.1-0.3-2.8-0.9c-0.6-0.6-1-1.5-1-2.6c0-1.1,0.4-2,1.3-2.6c0.9-0.6,2.1-0.9,3.7-0.9h2v-1
				c0-0.6-0.2-1.1-0.5-1.4s-0.9-0.5-1.5-0.5c-0.6,0-1.1,0.1-1.4,0.4c-0.4,0.3-0.5,0.7-0.5,1.1H459l0-0.1c0-0.9,0.4-1.7,1.2-2.4
				c0.9-0.7,2-1.1,3.4-1.1c1.4,0,2.4,0.3,3.3,1s1.2,1.7,1.2,3v5.2c0,0.5,0,0.9,0.1,1.4c0.1,0.4,0.2,0.9,0.3,1.3H465.9z M462.7,52.1
				c0.7,0,1.3-0.2,1.8-0.5c0.5-0.3,0.9-0.7,1-1.1v-1.7h-2.1c-0.8,0-1.4,0.2-1.8,0.6c-0.4,0.4-0.6,0.8-0.6,1.3c0,0.4,0.1,0.8,0.4,1.1
				C461.7,52,462.1,52.1,462.7,52.1z"/>
			<path class="st1" d="M482.2,54c-0.1-0.3-0.2-0.6-0.2-0.9c-0.1-0.3-0.1-0.6-0.1-0.8c-0.4,0.5-0.8,1-1.4,1.4
				c-0.6,0.4-1.2,0.6-2,0.6c-1.2,0-2.1-0.3-2.8-0.9c-0.6-0.6-1-1.5-1-2.6c0-1.1,0.4-2,1.3-2.6c0.9-0.6,2.1-0.9,3.7-0.9h2v-1
				c0-0.6-0.2-1.1-0.5-1.4s-0.9-0.5-1.5-0.5c-0.6,0-1.1,0.1-1.4,0.4c-0.4,0.3-0.5,0.7-0.5,1.1h-2.5l0-0.1c0-0.9,0.4-1.7,1.2-2.4
				c0.9-0.7,2-1.1,3.4-1.1c1.4,0,2.4,0.3,3.3,1s1.2,1.7,1.2,3v5.2c0,0.5,0,0.9,0.1,1.4c0.1,0.4,0.2,0.9,0.3,1.3H482.2z M479,52.1
				c0.7,0,1.3-0.2,1.8-0.5c0.5-0.3,0.9-0.7,1-1.1v-1.7h-2.1c-0.8,0-1.4,0.2-1.8,0.6c-0.4,0.4-0.6,0.8-0.6,1.3c0,0.4,0.1,0.8,0.4,1.1
				C478.1,52,478.5,52.1,479,52.1z"/>
			<path class="st1" d="M490.5,50.1l0.2,0.9h0.1l0.2-0.9l2.3-7.7h2.7L491.9,54h-2.3l-4.1-11.6h2.7L490.5,50.1z"/>
			<path class="st1" d="M503.9,54c-0.1-0.3-0.2-0.6-0.2-0.9c-0.1-0.3-0.1-0.6-0.1-0.8c-0.4,0.5-0.8,1-1.4,1.4
				c-0.6,0.4-1.2,0.6-2,0.6c-1.2,0-2.1-0.3-2.8-0.9c-0.6-0.6-1-1.5-1-2.6c0-1.1,0.4-2,1.3-2.6c0.9-0.6,2.1-0.9,3.7-0.9h2v-1
				c0-0.6-0.2-1.1-0.5-1.4s-0.9-0.5-1.5-0.5c-0.6,0-1.1,0.1-1.4,0.4c-0.4,0.3-0.5,0.7-0.5,1.1H497l0-0.1c0-0.9,0.4-1.7,1.2-2.4
				c0.9-0.7,2-1.1,3.4-1.1c1.4,0,2.4,0.3,3.3,1s1.2,1.7,1.2,3v5.2c0,0.5,0,0.9,0.1,1.4c0.1,0.4,0.2,0.9,0.3,1.3H503.9z M500.7,52.1
				c0.7,0,1.3-0.2,1.8-0.5c0.5-0.3,0.9-0.7,1-1.1v-1.7h-2.1c-0.8,0-1.4,0.2-1.8,0.6c-0.4,0.4-0.6,0.8-0.6,1.3c0,0.4,0.1,0.8,0.4,1.1
				C499.8,52,500.2,52.1,500.7,52.1z"/>
			<path class="st1" d="M511.1,39.5h-2.6v-2.3h2.6V39.5z M511.1,54h-2.6V42.4h2.6V54z"/>
			<path class="st1" d="M516.3,54h-2.6V37.2h2.6V54z"/>
			<path class="st1" d="M525.6,54c-0.1-0.3-0.2-0.6-0.2-0.9c-0.1-0.3-0.1-0.6-0.1-0.8c-0.4,0.5-0.8,1-1.4,1.4
				c-0.6,0.4-1.2,0.6-2,0.6c-1.2,0-2.1-0.3-2.8-0.9c-0.6-0.6-1-1.5-1-2.6c0-1.1,0.4-2,1.3-2.6c0.9-0.6,2.1-0.9,3.7-0.9h2v-1
				c0-0.6-0.2-1.1-0.5-1.4s-0.9-0.5-1.5-0.5c-0.6,0-1.1,0.1-1.4,0.4c-0.4,0.3-0.5,0.7-0.5,1.1h-2.5l0-0.1c0-0.9,0.4-1.7,1.2-2.4
				c0.9-0.7,2-1.1,3.4-1.1c1.4,0,2.4,0.3,3.3,1s1.2,1.7,1.2,3v5.2c0,0.5,0,0.9,0.1,1.4c0.1,0.4,0.2,0.9,0.3,1.3H525.6z M522.4,52.1
				c0.7,0,1.3-0.2,1.8-0.5c0.5-0.3,0.9-0.7,1-1.1v-1.7h-2.1c-0.8,0-1.4,0.2-1.8,0.6c-0.4,0.4-0.6,0.8-0.6,1.3c0,0.4,0.1,0.8,0.4,1.1
				C521.5,52,521.9,52.1,522.4,52.1z"/>
			<path class="st1" d="M540.3,48.6c0,1.7-0.4,3.1-1.2,4.1c-0.8,1-1.9,1.6-3.3,1.6c-0.7,0-1.4-0.1-1.9-0.4c-0.5-0.3-1-0.7-1.3-1.3
				l-0.3,1.5h-2.2V37.2h2.6v6.5c0.4-0.5,0.8-0.9,1.3-1.1c0.5-0.3,1.1-0.4,1.8-0.4c1.5,0,2.6,0.6,3.4,1.7c0.8,1.1,1.2,2.6,1.2,4.5
				V48.6z M537.6,48.4c0-1.2-0.2-2.2-0.6-2.9c-0.4-0.7-1.1-1.1-2-1.1c-0.6,0-1.1,0.1-1.5,0.4c-0.4,0.3-0.7,0.6-0.9,1.1v4.9
				c0.2,0.5,0.5,0.8,0.9,1.1c0.4,0.3,0.9,0.4,1.5,0.4c0.9,0,1.6-0.3,2-1c0.4-0.6,0.6-1.5,0.6-2.6V48.4z"/>
			<path class="st1" d="M544.7,54h-2.6V37.2h2.6V54z"/>
			<path class="st1" d="M552.1,54.2c-1.6,0-3-0.5-3.9-1.6c-1-1.1-1.5-2.5-1.5-4.2V48c0-1.7,0.5-3.1,1.5-4.2c1-1.1,2.2-1.7,3.6-1.7
				c1.6,0,2.8,0.5,3.6,1.4c0.8,0.9,1.3,2.2,1.3,3.8v1.5h-7.3l0,0.1c0,0.9,0.3,1.7,0.8,2.3c0.5,0.6,1.2,0.9,2.1,0.9
				c0.7,0,1.3-0.1,1.8-0.3s1-0.4,1.5-0.7l0.8,1.7c-0.4,0.4-1,0.7-1.7,1S553.1,54.2,552.1,54.2z M551.8,44.3c-0.6,0-1.2,0.3-1.6,0.8
				c-0.4,0.5-0.7,1.2-0.8,1.9l0,0.1h4.6v-0.3c0-0.7-0.2-1.3-0.6-1.8C553.1,44.5,552.6,44.3,551.8,44.3z"/>
		</g>
	</g>
	<g>
		<g>
			<path class="st1" d="M409.1,296.8h-2.6l-6.9-11.4l-0.1,0v11.4h-2.6v-15.6h2.6l6.9,11.4l0.1,0v-11.4h2.6V296.8z"/>
			<path class="st1" d="M411.1,290.9c0-1.7,0.5-3.1,1.4-4.3c1-1.1,2.3-1.7,3.9-1.7c1.7,0,3,0.6,3.9,1.7c1,1.1,1.4,2.5,1.4,4.3v0.2
				c0,1.7-0.5,3.2-1.4,4.3c-0.9,1.1-2.2,1.6-3.9,1.6c-1.7,0-3-0.6-3.9-1.7c-0.9-1.1-1.4-2.5-1.4-4.3V290.9z M413.8,291.1
				c0,1.1,0.2,2.1,0.7,2.8c0.4,0.7,1.1,1.1,2.1,1.1c0.9,0,1.6-0.4,2-1.1c0.5-0.7,0.7-1.6,0.7-2.8v-0.2c0-1.1-0.2-2-0.7-2.7
				c-0.5-0.7-1.1-1.1-2.1-1.1c-0.9,0-1.6,0.4-2,1.1c-0.4,0.7-0.7,1.6-0.7,2.7V291.1z"/>
			<path class="st1" d="M428,291.1c0-1.9,0.4-3.3,1.2-4.5c0.8-1.1,1.9-1.7,3.4-1.7c0.6,0,1.2,0.1,1.7,0.4c0.5,0.3,0.9,0.6,1.3,1.1
				V280h2.6v16.8h-2.2l-0.3-1.4c-0.4,0.5-0.8,1-1.3,1.2s-1.1,0.4-1.8,0.4c-1.4,0-2.5-0.5-3.3-1.6c-0.8-1-1.2-2.4-1.2-4.1V291.1z
				 M430.6,291.4c0,1.1,0.2,1.9,0.6,2.6c0.4,0.6,1.1,1,2,1c0.6,0,1-0.1,1.4-0.4c0.4-0.2,0.7-0.6,0.9-1v-5.1c-0.2-0.4-0.6-0.8-0.9-1
				c-0.4-0.2-0.8-0.4-1.4-0.4c-0.9,0-1.5,0.4-2,1.1s-0.6,1.7-0.6,2.9V291.4z"/>
			<path class="st1" d="M447.4,296.8c-0.1-0.3-0.2-0.6-0.2-0.9c-0.1-0.3-0.1-0.6-0.1-0.8c-0.4,0.5-0.8,1-1.4,1.4
				c-0.6,0.4-1.2,0.6-2,0.6c-1.2,0-2.1-0.3-2.8-0.9c-0.6-0.6-1-1.5-1-2.6c0-1.1,0.4-2,1.3-2.6c0.9-0.6,2.1-0.9,3.7-0.9h2v-1
				c0-0.6-0.2-1.1-0.5-1.4s-0.9-0.5-1.5-0.5c-0.6,0-1.1,0.1-1.4,0.4c-0.4,0.3-0.5,0.7-0.5,1.1h-2.5l0-0.1c0-0.9,0.4-1.7,1.2-2.4
				c0.9-0.7,2-1.1,3.4-1.1c1.4,0,2.4,0.3,3.3,1s1.2,1.7,1.2,3v5.2c0,0.5,0,0.9,0.1,1.4c0.1,0.4,0.2,0.9,0.3,1.3H447.4z M444.2,294.9
				c0.7,0,1.3-0.2,1.8-0.5c0.5-0.3,0.9-0.7,1-1.1v-1.7h-2.1c-0.8,0-1.4,0.2-1.8,0.6c-0.4,0.4-0.6,0.8-0.6,1.3c0,0.4,0.1,0.8,0.4,1.1
				C443.2,294.8,443.6,294.9,444.2,294.9z"/>
			<path class="st1" d="M455,282.3v2.8h2.1v1.9H455v6.4c0,0.5,0.1,0.8,0.3,1c0.2,0.2,0.5,0.3,0.8,0.3c0.1,0,0.3,0,0.4,0
				c0.1,0,0.3-0.1,0.4-0.1l0.3,1.9c-0.2,0.1-0.5,0.2-0.8,0.3s-0.6,0.1-1,0.1c-1,0-1.7-0.3-2.3-0.8c-0.5-0.6-0.8-1.4-0.8-2.6v-6.4
				h-1.8v-1.9h1.8v-2.8H455z"/>
			<path class="st1" d="M465.9,296.8c-0.1-0.3-0.2-0.6-0.2-0.9c-0.1-0.3-0.1-0.6-0.1-0.8c-0.4,0.5-0.8,1-1.4,1.4
				c-0.6,0.4-1.2,0.6-2,0.6c-1.2,0-2.1-0.3-2.8-0.9c-0.6-0.6-1-1.5-1-2.6c0-1.1,0.4-2,1.3-2.6c0.9-0.6,2.1-0.9,3.7-0.9h2v-1
				c0-0.6-0.2-1.1-0.5-1.4s-0.9-0.5-1.5-0.5c-0.6,0-1.1,0.1-1.4,0.4c-0.4,0.3-0.5,0.7-0.5,1.1H459l0-0.1c0-0.9,0.4-1.7,1.2-2.4
				c0.9-0.7,2-1.1,3.4-1.1c1.4,0,2.4,0.3,3.3,1s1.2,1.7,1.2,3v5.2c0,0.5,0,0.9,0.1,1.4c0.1,0.4,0.2,0.9,0.3,1.3H465.9z M462.7,294.9
				c0.7,0,1.3-0.2,1.8-0.5c0.5-0.3,0.9-0.7,1-1.1v-1.7h-2.1c-0.8,0-1.4,0.2-1.8,0.6c-0.4,0.4-0.6,0.8-0.6,1.3c0,0.4,0.1,0.8,0.4,1.1
				C461.7,294.8,462.1,294.9,462.7,294.9z"/>
			<path class="st1" d="M482.2,296.8c-0.1-0.3-0.2-0.6-0.2-0.9c-0.1-0.3-0.1-0.6-0.1-0.8c-0.4,0.5-0.8,1-1.4,1.4
				c-0.6,0.4-1.2,0.6-2,0.6c-1.2,0-2.1-0.3-2.8-0.9c-0.6-0.6-1-1.5-1-2.6c0-1.1,0.4-2,1.3-2.6c0.9-0.6,2.1-0.9,3.7-0.9h2v-1
				c0-0.6-0.2-1.1-0.5-1.4s-0.9-0.5-1.5-0.5c-0.6,0-1.1,0.1-1.4,0.4c-0.4,0.3-0.5,0.7-0.5,1.1h-2.5l0-0.1c0-0.9,0.4-1.7,1.2-2.4
				c0.9-0.7,2-1.1,3.4-1.1c1.4,0,2.4,0.3,3.3,1s1.2,1.7,1.2,3v5.2c0,0.5,0,0.9,0.1,1.4c0.1,0.4,0.2,0.9,0.3,1.3H482.2z M479,294.9
				c0.7,0,1.3-0.2,1.8-0.5c0.5-0.3,0.9-0.7,1-1.1v-1.7h-2.1c-0.8,0-1.4,0.2-1.8,0.6c-0.4,0.4-0.6,0.8-0.6,1.3c0,0.4,0.1,0.8,0.4,1.1
				C478.1,294.8,478.5,294.9,479,294.9z"/>
			<path class="st1" d="M490.5,292.9l0.2,0.9h0.1l0.2-0.9l2.3-7.7h2.7l-4.1,11.6h-2.3l-4.1-11.6h2.7L490.5,292.9z"/>
			<path class="st1" d="M503.9,296.8c-0.1-0.3-0.2-0.6-0.2-0.9c-0.1-0.3-0.1-0.6-0.1-0.8c-0.4,0.5-0.8,1-1.4,1.4
				c-0.6,0.4-1.2,0.6-2,0.6c-1.2,0-2.1-0.3-2.8-0.9c-0.6-0.6-1-1.5-1-2.6c0-1.1,0.4-2,1.3-2.6c0.9-0.6,2.1-0.9,3.7-0.9h2v-1
				c0-0.6-0.2-1.1-0.5-1.4s-0.9-0.5-1.5-0.5c-0.6,0-1.1,0.1-1.4,0.4c-0.4,0.3-0.5,0.7-0.5,1.1H497l0-0.1c0-0.9,0.4-1.7,1.2-2.4
				c0.9-0.7,2-1.1,3.4-1.1c1.4,0,2.4,0.3,3.3,1s1.2,1.7,1.2,3v5.2c0,0.5,0,0.9,0.1,1.4c0.1,0.4,0.2,0.9,0.3,1.3H503.9z M500.7,294.9
				c0.7,0,1.3-0.2,1.8-0.5c0.5-0.3,0.9-0.7,1-1.1v-1.7h-2.1c-0.8,0-1.4,0.2-1.8,0.6c-0.4,0.4-0.6,0.8-0.6,1.3c0,0.4,0.1,0.8,0.4,1.1
				C499.8,294.8,500.2,294.9,500.7,294.9z"/>
			<path class="st1" d="M511.1,282.3h-2.6V280h2.6V282.3z M511.1,296.8h-2.6v-11.6h2.6V296.8z"/>
			<path class="st1" d="M516.3,296.8h-2.6V280h2.6V296.8z"/>
			<path class="st1" d="M525.6,296.8c-0.1-0.3-0.2-0.6-0.2-0.9c-0.1-0.3-0.1-0.6-0.1-0.8c-0.4,0.5-0.8,1-1.4,1.4
				c-0.6,0.4-1.2,0.6-2,0.6c-1.2,0-2.1-0.3-2.8-0.9c-0.6-0.6-1-1.5-1-2.6c0-1.1,0.4-2,1.3-2.6c0.9-0.6,2.1-0.9,3.7-0.9h2v-1
				c0-0.6-0.2-1.1-0.5-1.4s-0.9-0.5-1.5-0.5c-0.6,0-1.1,0.1-1.4,0.4c-0.4,0.3-0.5,0.7-0.5,1.1h-2.5l0-0.1c0-0.9,0.4-1.7,1.2-2.4
				c0.9-0.7,2-1.1,3.4-1.1c1.4,0,2.4,0.3,3.3,1s1.2,1.7,1.2,3v5.2c0,0.5,0,0.9,0.1,1.4c0.1,0.4,0.2,0.9,0.3,1.3H525.6z M522.4,294.9
				c0.7,0,1.3-0.2,1.8-0.5c0.5-0.3,0.9-0.7,1-1.1v-1.7h-2.1c-0.8,0-1.4,0.2-1.8,0.6c-0.4,0.4-0.6,0.8-0.6,1.3c0,0.4,0.1,0.8,0.4,1.1
				C521.5,294.8,521.9,294.9,522.4,294.9z"/>
			<path class="st1" d="M540.3,291.4c0,1.7-0.4,3.1-1.2,4.1c-0.8,1-1.9,1.6-3.3,1.6c-0.7,0-1.4-0.1-1.9-0.4c-0.5-0.3-1-0.7-1.3-1.3
				l-0.3,1.5h-2.2V280h2.6v6.5c0.4-0.5,0.8-0.9,1.3-1.1c0.5-0.3,1.1-0.4,1.8-0.4c1.5,0,2.6,0.6,3.4,1.7c0.8,1.1,1.2,2.6,1.2,4.5
				V291.4z M537.6,291.1c0-1.2-0.2-2.2-0.6-2.9c-0.4-0.7-1.1-1.1-2-1.1c-0.6,0-1.1,0.1-1.5,0.4c-0.4,0.3-0.7,0.6-0.9,1.1v4.9
				c0.2,0.5,0.5,0.8,0.9,1.1s0.9,0.4,1.5,0.4c0.9,0,1.6-0.3,2-0.9c0.4-0.6,0.6-1.5,0.6-2.6V291.1z"/>
			<path class="st1" d="M544.7,296.8h-2.6V280h2.6V296.8z"/>
			<path class="st1" d="M552.1,297c-1.6,0-3-0.5-3.9-1.6c-1-1.1-1.5-2.5-1.5-4.2v-0.4c0-1.7,0.5-3.1,1.5-4.2c1-1.1,2.2-1.7,3.6-1.7
				c1.6,0,2.8,0.5,3.6,1.4c0.8,0.9,1.3,2.2,1.3,3.8v1.5h-7.3l0,0.1c0,0.9,0.3,1.7,0.8,2.3c0.5,0.6,1.2,0.9,2.1,0.9
				c0.7,0,1.3-0.1,1.8-0.3s1-0.4,1.5-0.7l0.8,1.7c-0.4,0.4-1,0.7-1.7,1C553.9,296.9,553.1,297,552.1,297z M551.8,287
				c-0.6,0-1.2,0.3-1.6,0.8c-0.4,0.5-0.7,1.2-0.8,2l0,0.1h4.6v-0.3c0-0.7-0.2-1.3-0.6-1.8C553.1,287.3,552.6,287,551.8,287z"/>
		</g>
	</g>
	<g>
		<g>
			<path class="st1" d="M1330.9,286h-1.7l-4.4-7.3l0,0v7.3h-1.7v-10h1.7l4.4,7.3l0,0v-7.2h1.7V286z"/>
			<path class="st1" d="M1332.3,282.3c0-1.1,0.3-2,0.9-2.7c0.6-0.7,1.4-1.1,2.5-1.1c1.1,0,1.9,0.4,2.5,1.1c0.6,0.7,0.9,1.6,0.9,2.7
				v0.1c0,1.1-0.3,2-0.9,2.7c-0.6,0.7-1.4,1-2.5,1c-1.1,0-1.9-0.4-2.5-1.1c-0.6-0.7-0.9-1.6-0.9-2.7V282.3z M1333.9,282.4
				c0,0.7,0.1,1.3,0.4,1.8c0.3,0.5,0.7,0.7,1.3,0.7c0.6,0,1-0.2,1.3-0.7c0.3-0.5,0.4-1,0.4-1.8v-0.1c0-0.7-0.1-1.3-0.4-1.7
				c-0.3-0.5-0.7-0.7-1.3-0.7c-0.6,0-1,0.2-1.3,0.7c-0.3,0.5-0.4,1-0.4,1.7V282.4z"/>
			<path class="st1" d="M1343,282.5c0-1.2,0.3-2.1,0.8-2.9c0.5-0.7,1.2-1.1,2.1-1.1c0.4,0,0.8,0.1,1.1,0.2c0.3,0.2,0.6,0.4,0.8,0.7
				v-4.1h1.7V286h-1.4l-0.2-0.9c-0.2,0.3-0.5,0.6-0.9,0.8c-0.3,0.2-0.7,0.3-1.2,0.3c-0.9,0-1.6-0.3-2.1-1s-0.8-1.5-0.8-2.6V282.5z
				 M1344.6,282.6c0,0.7,0.1,1.2,0.4,1.6c0.3,0.4,0.7,0.6,1.2,0.6c0.4,0,0.6-0.1,0.9-0.2c0.2-0.2,0.4-0.4,0.6-0.6v-3.2
				c-0.2-0.3-0.4-0.5-0.6-0.6c-0.2-0.2-0.5-0.2-0.9-0.2c-0.6,0-1,0.2-1.3,0.7c-0.3,0.5-0.4,1.1-0.4,1.9V282.6z"/>
			<path class="st1" d="M1355.3,286c-0.1-0.2-0.1-0.4-0.1-0.5c0-0.2-0.1-0.4-0.1-0.5c-0.2,0.3-0.5,0.6-0.9,0.9
				c-0.4,0.2-0.8,0.4-1.2,0.4c-0.8,0-1.4-0.2-1.8-0.6c-0.4-0.4-0.6-0.9-0.6-1.6c0-0.7,0.3-1.3,0.8-1.7c0.6-0.4,1.4-0.6,2.4-0.6h1.3
				V281c0-0.4-0.1-0.7-0.3-0.9s-0.6-0.3-1-0.3c-0.4,0-0.7,0.1-0.9,0.3c-0.2,0.2-0.3,0.4-0.3,0.7h-1.6l0,0c0-0.6,0.2-1.1,0.8-1.6
				c0.6-0.5,1.3-0.7,2.2-0.7c0.9,0,1.6,0.2,2.1,0.7s0.8,1.1,0.8,1.9v3.3c0,0.3,0,0.6,0.1,0.9c0,0.3,0.1,0.6,0.2,0.8H1355.3z
				 M1353.3,284.9c0.4,0,0.8-0.1,1.1-0.3c0.3-0.2,0.6-0.4,0.7-0.7v-1.1h-1.3c-0.5,0-0.9,0.1-1.1,0.4c-0.3,0.2-0.4,0.5-0.4,0.8
				c0,0.3,0.1,0.5,0.3,0.7C1352.7,284.8,1352.9,284.9,1353.3,284.9z"/>
			<path class="st1" d="M1360.2,276.9v1.8h1.3v1.2h-1.3v4.1c0,0.3,0.1,0.5,0.2,0.7c0.1,0.1,0.3,0.2,0.5,0.2c0.1,0,0.2,0,0.3,0
				c0.1,0,0.2,0,0.2-0.1l0.2,1.2c-0.1,0.1-0.3,0.1-0.5,0.2c-0.2,0-0.4,0.1-0.6,0.1c-0.6,0-1.1-0.2-1.4-0.5c-0.3-0.4-0.5-0.9-0.5-1.7
				v-4.1h-1.1v-1.2h1.1v-1.8H1360.2z"/>
			<path class="st1" d="M1367.1,286c-0.1-0.2-0.1-0.4-0.1-0.5c0-0.2-0.1-0.4-0.1-0.5c-0.2,0.3-0.5,0.6-0.9,0.9
				c-0.4,0.2-0.8,0.4-1.2,0.4c-0.8,0-1.4-0.2-1.8-0.6c-0.4-0.4-0.6-0.9-0.6-1.6c0-0.7,0.3-1.3,0.8-1.7c0.6-0.4,1.4-0.6,2.4-0.6h1.3
				V281c0-0.4-0.1-0.7-0.3-0.9s-0.6-0.3-1-0.3c-0.4,0-0.7,0.1-0.9,0.3c-0.2,0.2-0.3,0.4-0.3,0.7h-1.6l0,0c0-0.6,0.2-1.1,0.8-1.6
				c0.6-0.5,1.3-0.7,2.2-0.7c0.9,0,1.6,0.2,2.1,0.7s0.8,1.1,0.8,1.9v3.3c0,0.3,0,0.6,0.1,0.9c0,0.3,0.1,0.6,0.2,0.8H1367.1z
				 M1365.1,284.9c0.4,0,0.8-0.1,1.1-0.3c0.3-0.2,0.6-0.4,0.7-0.7v-1.1h-1.3c-0.5,0-0.9,0.1-1.1,0.4c-0.3,0.2-0.4,0.5-0.4,0.8
				c0,0.3,0.1,0.5,0.3,0.7C1364.4,284.8,1364.7,284.9,1365.1,284.9z"/>
			<path class="st1" d="M1324.5,302.8c-0.1-0.2-0.1-0.4-0.1-0.5c0-0.2-0.1-0.4-0.1-0.5c-0.2,0.3-0.5,0.6-0.9,0.9
				c-0.4,0.2-0.8,0.4-1.2,0.4c-0.8,0-1.4-0.2-1.8-0.6c-0.4-0.4-0.6-0.9-0.6-1.6c0-0.7,0.3-1.3,0.8-1.7c0.6-0.4,1.4-0.6,2.4-0.6h1.3
				v-0.6c0-0.4-0.1-0.7-0.3-0.9s-0.6-0.3-1-0.3c-0.4,0-0.7,0.1-0.9,0.3s-0.3,0.4-0.3,0.7h-1.6l0,0c0-0.6,0.2-1.1,0.8-1.6
				c0.6-0.5,1.3-0.7,2.2-0.7c0.9,0,1.6,0.2,2.1,0.7s0.8,1.1,0.8,1.9v3.3c0,0.3,0,0.6,0.1,0.9c0,0.3,0.1,0.6,0.2,0.8H1324.5z
				 M1322.4,301.7c0.4,0,0.8-0.1,1.1-0.3c0.3-0.2,0.6-0.4,0.7-0.7v-1.1h-1.3c-0.5,0-0.9,0.1-1.1,0.4c-0.3,0.2-0.4,0.5-0.4,0.8
				c0,0.3,0.1,0.5,0.3,0.7C1321.8,301.6,1322.1,301.7,1322.4,301.7z"/>
			<path class="st1" d="M1329.8,300.3l0.1,0.6h0l0.1-0.6l1.5-4.9h1.7l-2.6,7.4h-1.4l-2.6-7.4h1.7L1329.8,300.3z"/>
			<path class="st1" d="M1338.3,302.8c-0.1-0.2-0.1-0.4-0.1-0.5c0-0.2-0.1-0.4-0.1-0.5c-0.2,0.3-0.5,0.6-0.9,0.9
				c-0.4,0.2-0.8,0.4-1.2,0.4c-0.8,0-1.4-0.2-1.8-0.6c-0.4-0.4-0.6-0.9-0.6-1.6c0-0.7,0.3-1.3,0.8-1.7c0.6-0.4,1.4-0.6,2.4-0.6h1.3
				v-0.6c0-0.4-0.1-0.7-0.3-0.9s-0.6-0.3-1-0.3c-0.4,0-0.7,0.1-0.9,0.3s-0.3,0.4-0.3,0.7h-1.6l0,0c0-0.6,0.2-1.1,0.8-1.6
				c0.6-0.5,1.3-0.7,2.2-0.7c0.9,0,1.6,0.2,2.1,0.7s0.8,1.1,0.8,1.9v3.3c0,0.3,0,0.6,0.1,0.9c0,0.3,0.1,0.6,0.2,0.8H1338.3z
				 M1336.2,301.7c0.4,0,0.8-0.1,1.1-0.3c0.3-0.2,0.6-0.4,0.7-0.7v-1.1h-1.3c-0.5,0-0.9,0.1-1.1,0.4c-0.3,0.2-0.4,0.5-0.4,0.8
				c0,0.3,0.1,0.5,0.3,0.7C1335.6,301.6,1335.9,301.7,1336.2,301.7z"/>
			<path class="st1" d="M1342.9,293.6h-1.7v-1.5h1.7V293.6z M1342.9,302.8h-1.7v-7.4h1.7V302.8z"/>
			<path class="st1" d="M1346.1,302.8h-1.7v-10.7h1.7V302.8z"/>
			<path class="st1" d="M1352.1,302.8c-0.1-0.2-0.1-0.4-0.1-0.5c0-0.2-0.1-0.4-0.1-0.5c-0.2,0.3-0.5,0.6-0.9,0.9
				c-0.4,0.2-0.8,0.4-1.2,0.4c-0.8,0-1.4-0.2-1.8-0.6c-0.4-0.4-0.6-0.9-0.6-1.6c0-0.7,0.3-1.3,0.8-1.7c0.6-0.4,1.4-0.6,2.4-0.6h1.3
				v-0.6c0-0.4-0.1-0.7-0.3-0.9s-0.6-0.3-1-0.3c-0.4,0-0.7,0.1-0.9,0.3s-0.3,0.4-0.3,0.7h-1.6l0,0c0-0.6,0.2-1.1,0.8-1.6
				c0.6-0.5,1.3-0.7,2.2-0.7c0.9,0,1.6,0.2,2.1,0.7s0.8,1.1,0.8,1.9v3.3c0,0.3,0,0.6,0.1,0.9c0,0.3,0.1,0.6,0.2,0.8H1352.1z
				 M1350.1,301.7c0.4,0,0.8-0.1,1.1-0.3c0.3-0.2,0.6-0.4,0.7-0.7v-1.1h-1.3c-0.5,0-0.9,0.1-1.1,0.4c-0.3,0.2-0.4,0.5-0.4,0.8
				c0,0.3,0.1,0.5,0.3,0.7C1349.5,301.6,1349.7,301.7,1350.1,301.7z"/>
			<path class="st1" d="M1361.4,299.4c0,1.1-0.3,1.9-0.8,2.6c-0.5,0.7-1.2,1-2.1,1c-0.5,0-0.9-0.1-1.2-0.3c-0.3-0.2-0.6-0.5-0.9-0.8
				l-0.2,1h-1.4v-10.7h1.7v4.1c0.2-0.3,0.5-0.6,0.8-0.7s0.7-0.3,1.1-0.3c0.9,0,1.6,0.4,2.1,1.1c0.5,0.7,0.8,1.7,0.8,2.9V299.4z
				 M1359.7,299.3c0-0.8-0.1-1.4-0.4-1.9s-0.7-0.7-1.3-0.7c-0.4,0-0.7,0.1-0.9,0.2c-0.2,0.2-0.4,0.4-0.6,0.7v3.1
				c0.1,0.3,0.3,0.5,0.6,0.7c0.3,0.2,0.6,0.2,0.9,0.2c0.6,0,1-0.2,1.3-0.6c0.3-0.4,0.4-0.9,0.4-1.6V299.3z"/>
			<path class="st1" d="M1364.3,302.8h-1.7v-10.7h1.7V302.8z"/>
			<path class="st1" d="M1368.9,303c-1,0-1.9-0.3-2.5-1c-0.6-0.7-0.9-1.6-0.9-2.6V299c0-1.1,0.3-2,0.9-2.7c0.6-0.7,1.4-1.1,2.3-1.1
				c1,0,1.8,0.3,2.3,0.9c0.5,0.6,0.8,1.4,0.8,2.4v1h-4.6l0,0c0,0.6,0.2,1.1,0.5,1.4c0.3,0.4,0.8,0.6,1.3,0.6c0.4,0,0.8-0.1,1.1-0.2
				s0.6-0.3,0.9-0.5l0.5,1.1c-0.3,0.2-0.6,0.5-1.1,0.6C1370.1,302.9,1369.5,303,1368.9,303z M1368.8,296.6c-0.4,0-0.7,0.2-1,0.5
				c-0.3,0.3-0.4,0.7-0.5,1.2l0,0h2.9v-0.2c0-0.5-0.1-0.9-0.4-1.1C1369.6,296.8,1369.2,296.6,1368.8,296.6z"/>
		</g>
	</g>
	<g>
		<g>
			<path class="st1" d="M705,69.8l1-9.4h9v2.5h-6.6l-0.5,4.3c0.3-0.2,0.7-0.5,1.2-0.6s0.9-0.2,1.5-0.3c1.6,0,2.9,0.5,3.8,1.5
				s1.4,2.4,1.4,4.2c0,1.7-0.5,3-1.4,4.1s-2.3,1.6-4.1,1.6c-1.5,0-2.8-0.4-3.8-1.2s-1.5-2-1.5-3.5l0-0.1l2.7-0.1
				c0,0.8,0.2,1.5,0.7,1.9s1.1,0.7,1.9,0.7c0.9,0,1.6-0.3,2-0.9s0.7-1.4,0.7-2.5c0-1-0.2-1.9-0.7-2.5s-1.2-1-2-1
				c-0.8,0-1.4,0.1-1.7,0.4c-0.4,0.3-0.7,0.6-0.8,1.1L705,69.8z"/>
			<path class="st1" d="M720.8,77.4H718v-2.7h2.8V77.4z"/>
			<path class="st1" d="M734.7,70.9c0,2.2-0.5,3.9-1.5,5.1s-2.4,1.7-4.1,1.7c-1.7,0-3.1-0.6-4.1-1.7s-1.5-2.9-1.5-5.1v-3.9
				c0-2.2,0.5-3.9,1.5-5.1s2.4-1.8,4.1-1.8c1.7,0,3.1,0.6,4.1,1.8s1.5,2.9,1.5,5.1V70.9z M731.9,66.5c0-1.4-0.2-2.4-0.7-3.1
				c-0.5-0.7-1.2-1-2.1-1s-1.6,0.3-2,1c-0.5,0.7-0.7,1.7-0.7,3.1v4.7c0,1.4,0.2,2.4,0.7,3.1s1.2,1,2.1,1s1.6-0.3,2-1
				s0.7-1.7,0.7-3.1V66.5z"/>
		</g>
	</g>
	<g>
		<g>
			<path class="st1" d="M791.7,69.8l1-9.4h9v2.5h-6.6l-0.5,4.3c0.3-0.2,0.7-0.5,1.2-0.6s0.9-0.2,1.5-0.3c1.6,0,2.9,0.5,3.8,1.5
				s1.4,2.4,1.4,4.2c0,1.7-0.5,3-1.4,4.1s-2.3,1.6-4.1,1.6c-1.5,0-2.8-0.4-3.8-1.2s-1.5-2-1.5-3.5l0-0.1l2.7-0.1
				c0,0.8,0.2,1.5,0.7,1.9s1.1,0.7,1.9,0.7c0.9,0,1.6-0.3,2-0.9s0.7-1.4,0.7-2.5c0-1-0.2-1.9-0.7-2.5s-1.2-1-2-1
				c-0.8,0-1.4,0.1-1.7,0.4c-0.4,0.3-0.7,0.6-0.8,1.1L791.7,69.8z"/>
			<path class="st1" d="M807.6,77.4h-2.8v-2.7h2.8V77.4z"/>
			<path class="st1" d="M810.9,69.8l1-9.4h9v2.5h-6.6l-0.5,4.3c0.3-0.2,0.7-0.5,1.2-0.6s0.9-0.2,1.5-0.3c1.6,0,2.9,0.5,3.8,1.5
				s1.4,2.4,1.4,4.2c0,1.7-0.5,3-1.4,4.1s-2.3,1.6-4.1,1.6c-1.5,0-2.8-0.4-3.8-1.2s-1.5-2-1.5-3.5l0-0.1l2.7-0.1
				c0,0.8,0.2,1.5,0.7,1.9s1.1,0.7,1.9,0.7c0.9,0,1.6-0.3,2-0.9s0.7-1.4,0.7-2.5c0-1-0.2-1.9-0.7-2.5s-1.2-1-2-1
				c-0.8,0-1.4,0.1-1.7,0.4c-0.4,0.3-0.7,0.6-0.8,1.1L810.9,69.8z"/>
		</g>
	</g>
	<g>
		<g>
			<path class="st1" d="M897.4,60.1c0.6,0,1.2,0.1,1.8,0.2c0.6,0.1,1.1,0.3,1.5,0.5l-0.5,2.2c-0.4-0.2-0.9-0.3-1.3-0.4
				s-0.9-0.2-1.4-0.2c-1.1,0-2.1,0.4-2.7,1.3c-0.7,0.9-1,2.1-1,3.6v0.1c0.5-0.4,1-0.8,1.6-1s1.3-0.4,2-0.4c1.5,0,2.7,0.5,3.6,1.6
				s1.3,2.4,1.3,4.1c0,1.7-0.5,3.2-1.5,4.3s-2.3,1.7-4,1.7c-1.7,0-3.2-0.6-4.3-1.8s-1.7-2.9-1.7-5.1v-3.3c0-2.2,0.6-4,1.9-5.3
				S895.5,60.1,897.4,60.1z M896.6,68.2c-0.7,0-1.3,0.1-1.8,0.4s-0.9,0.6-1.1,1v1.2c0,1.4,0.3,2.6,0.9,3.3s1.3,1.2,2.2,1.2
				c0.8,0,1.5-0.4,2-1.1s0.7-1.6,0.7-2.6c0-1-0.2-1.9-0.8-2.5S897.5,68.2,896.6,68.2z"/>
			<path class="st1" d="M907.1,77.4h-2.8v-2.7h2.8V77.4z"/>
			<path class="st1" d="M921,70.9c0,2.2-0.5,3.9-1.5,5.1s-2.4,1.7-4.1,1.7c-1.7,0-3.1-0.6-4.1-1.7s-1.5-2.9-1.5-5.1v-3.9
				c0-2.2,0.5-3.9,1.5-5.1s2.4-1.8,4.1-1.8c1.7,0,3.1,0.6,4.1,1.8s1.5,2.9,1.5,5.1V70.9z M918.1,66.5c0-1.4-0.2-2.4-0.7-3.1
				c-0.5-0.7-1.2-1-2.1-1s-1.6,0.3-2,1c-0.5,0.7-0.7,1.7-0.7,3.1v4.7c0,1.4,0.2,2.4,0.7,3.1s1.2,1,2.1,1s1.6-0.3,2-1
				s0.7-1.7,0.7-3.1V66.5z"/>
		</g>
	</g>
	<g>
		<g>
			<path class="st1" d="M991.1,60.1c0.6,0,1.2,0.1,1.8,0.2c0.6,0.1,1.1,0.3,1.5,0.5l-0.5,2.2c-0.4-0.2-0.9-0.3-1.3-0.4
				s-0.9-0.2-1.4-0.2c-1.1,0-2.1,0.4-2.7,1.3c-0.7,0.9-1,2.1-1,3.6v0.1c0.5-0.4,1-0.8,1.6-1s1.3-0.4,2-0.4c1.5,0,2.7,0.5,3.6,1.6
				s1.3,2.4,1.3,4.1c0,1.7-0.5,3.2-1.5,4.3s-2.3,1.7-4,1.7c-1.7,0-3.2-0.6-4.3-1.8s-1.7-2.9-1.7-5.1v-3.3c0-2.2,0.6-4,1.9-5.3
				S989.2,60.1,991.1,60.1z M990.3,68.2c-0.7,0-1.3,0.1-1.8,0.4s-0.9,0.6-1.1,1v1.2c0,1.4,0.3,2.6,0.9,3.3s1.3,1.2,2.2,1.2
				c0.8,0,1.5-0.4,2-1.1s0.7-1.6,0.7-2.6c0-1-0.2-1.9-0.8-2.5S991.1,68.2,990.3,68.2z"/>
			<path class="st1" d="M1000.8,77.4h-2.8v-2.7h2.8V77.4z"/>
			<path class="st1" d="M1004.1,69.8l1-9.4h9v2.5h-6.6l-0.5,4.3c0.3-0.2,0.7-0.5,1.2-0.6s0.9-0.2,1.5-0.3c1.6,0,2.9,0.5,3.8,1.5
				s1.4,2.4,1.4,4.2c0,1.7-0.5,3-1.4,4.1s-2.3,1.6-4.1,1.6c-1.5,0-2.8-0.4-3.8-1.2s-1.5-2-1.5-3.5l0-0.1l2.7-0.1
				c0,0.8,0.2,1.5,0.7,1.9s1.1,0.7,1.9,0.7c0.9,0,1.6-0.3,2-0.9s0.7-1.4,0.7-2.5c0-1-0.2-1.9-0.7-2.5s-1.2-1-2-1
				c-0.8,0-1.4,0.1-1.7,0.4c-0.4,0.3-0.7,0.6-0.8,1.1L1004.1,69.8z"/>
		</g>
	</g>
	<g>
		<g>
			<path class="st1" d="M1089.4,62.6c-2,2.3-3.3,4.4-4,6.2s-1.2,4.1-1.5,6.7l-0.2,1.8h-2.8l0.2-1.8c0.3-2.6,0.9-4.9,1.8-7
				s2.2-4.1,3.7-6h-9v-2.3h11.8V62.6z"/>
			<path class="st1" d="M1094.4,77.4h-2.8v-2.7h2.8V77.4z"/>
			<path class="st1" d="M1108.3,70.9c0,2.2-0.5,3.9-1.5,5.1s-2.4,1.7-4.1,1.7c-1.7,0-3.1-0.6-4.1-1.7s-1.5-2.9-1.5-5.1v-3.9
				c0-2.2,0.5-3.9,1.5-5.1s2.4-1.8,4.1-1.8c1.7,0,3.1,0.6,4.1,1.8s1.5,2.9,1.5,5.1V70.9z M1105.5,66.5c0-1.4-0.2-2.4-0.7-3.1
				c-0.5-0.7-1.2-1-2.1-1s-1.6,0.3-2,1c-0.5,0.7-0.7,1.7-0.7,3.1v4.7c0,1.4,0.2,2.4,0.7,3.1s1.2,1,2.1,1s1.6-0.3,2-1
				s0.7-1.7,0.7-3.1V66.5z"/>
		</g>
	</g>
	<g>
		<g>
			<path class="st1" d="M1176.3,62.6c-2,2.3-3.3,4.4-4,6.2s-1.2,4.1-1.5,6.7l-0.2,1.8h-2.8l0.2-1.8c0.3-2.6,0.9-4.9,1.8-7
				s2.2-4.1,3.7-6h-9v-2.3h11.8V62.6z"/>
			<path class="st1" d="M1181.4,77.4h-2.8v-2.7h2.8V77.4z"/>
			<path class="st1" d="M1184.7,69.8l1-9.4h9v2.5h-6.6l-0.5,4.3c0.3-0.2,0.7-0.5,1.2-0.6s0.9-0.2,1.5-0.3c1.6,0,2.9,0.5,3.8,1.5
				s1.4,2.4,1.4,4.2c0,1.7-0.5,3-1.4,4.1s-2.3,1.6-4.1,1.6c-1.5,0-2.8-0.4-3.8-1.2s-1.5-2-1.5-3.5l0-0.1l2.7-0.1
				c0,0.8,0.2,1.5,0.7,1.9s1.1,0.7,1.9,0.7c0.9,0,1.6-0.3,2-0.9s0.7-1.4,0.7-2.5c0-1-0.2-1.9-0.7-2.5s-1.2-1-2-1
				c-0.8,0-1.4,0.1-1.7,0.4c-0.4,0.3-0.7,0.6-0.8,1.1L1184.7,69.8z"/>
		</g>
	</g>
	<g>
		<g>
			<path class="st1" d="M1238.3,64.9c0,0.9-0.2,1.6-0.7,2.3s-1.1,1.2-1.9,1.5c0.9,0.4,1.7,0.9,2.2,1.6s0.8,1.5,0.8,2.5
				c0,1.6-0.5,2.8-1.6,3.6s-2.4,1.3-4.1,1.3c-1.7,0-3.1-0.4-4.1-1.3s-1.6-2.1-1.6-3.6c0-0.9,0.3-1.8,0.8-2.5s1.3-1.3,2.2-1.6
				c-0.8-0.3-1.4-0.8-1.9-1.5s-0.7-1.4-0.7-2.3c0-1.5,0.5-2.7,1.4-3.5s2.2-1.2,3.8-1.2c1.6,0,2.8,0.4,3.8,1.2
				S1238.3,63.3,1238.3,64.9z M1235.9,72.6c0-0.8-0.3-1.5-0.8-2c-0.5-0.5-1.2-0.8-2-0.8c-0.8,0-1.5,0.3-2,0.8
				c-0.5,0.5-0.8,1.2-0.8,2c0,0.9,0.3,1.5,0.8,2s1.2,0.7,2.1,0.7c0.8,0,1.5-0.2,2-0.7S1235.9,73.5,1235.9,72.6z M1235.4,65
				c0-0.8-0.2-1.4-0.7-1.8s-1-0.7-1.7-0.7c-0.7,0-1.3,0.2-1.7,0.7s-0.6,1.1-0.6,1.9c0,0.8,0.2,1.4,0.7,1.9s1,0.7,1.8,0.7
				c0.7,0,1.3-0.2,1.7-0.7S1235.4,65.7,1235.4,65z"/>
			<path class="st1" d="M1243.9,77.4h-2.8v-2.7h2.8V77.4z"/>
			<path class="st1" d="M1257.8,70.9c0,2.2-0.5,3.9-1.5,5.1s-2.4,1.7-4.1,1.7c-1.7,0-3.1-0.6-4.1-1.7s-1.5-2.9-1.5-5.1v-3.9
				c0-2.2,0.5-3.9,1.5-5.1s2.4-1.8,4.1-1.8c1.7,0,3.1,0.6,4.1,1.8s1.5,2.9,1.5,5.1V70.9z M1254.9,66.5c0-1.4-0.2-2.4-0.7-3.1
				c-0.5-0.7-1.2-1-2.1-1s-1.6,0.3-2,1c-0.5,0.7-0.7,1.7-0.7,3.1v4.7c0,1.4,0.2,2.4,0.7,3.1s1.2,1,2.1,1s1.6-0.3,2-1
				s0.7-1.7,0.7-3.1V66.5z"/>
		</g>
	</g>
	<g>
		<g>
			<path class="st1" d="M1283,64.9c0,0.9-0.2,1.6-0.7,2.3s-1.1,1.2-1.9,1.5c0.9,0.4,1.7,0.9,2.2,1.6s0.8,1.5,0.8,2.5
				c0,1.6-0.5,2.8-1.6,3.6s-2.4,1.3-4.1,1.3c-1.7,0-3.1-0.4-4.1-1.3s-1.6-2.1-1.6-3.6c0-0.9,0.3-1.8,0.8-2.5s1.3-1.3,2.2-1.6
				c-0.8-0.3-1.4-0.8-1.9-1.5s-0.7-1.4-0.7-2.3c0-1.5,0.5-2.7,1.4-3.5s2.2-1.2,3.8-1.2c1.6,0,2.8,0.4,3.8,1.2S1283,63.3,1283,64.9z
				 M1280.6,72.6c0-0.8-0.3-1.5-0.8-2c-0.5-0.5-1.2-0.8-2-0.8c-0.8,0-1.5,0.3-2,0.8c-0.5,0.5-0.8,1.2-0.8,2c0,0.9,0.3,1.5,0.8,2
				s1.2,0.7,2.1,0.7c0.8,0,1.5-0.2,2-0.7S1280.6,73.5,1280.6,72.6z M1280.2,65c0-0.8-0.2-1.4-0.7-1.8s-1-0.7-1.7-0.7
				c-0.7,0-1.3,0.2-1.7,0.7s-0.6,1.1-0.6,1.9c0,0.8,0.2,1.4,0.7,1.9s1,0.7,1.8,0.7c0.7,0,1.3-0.2,1.7-0.7S1280.2,65.7,1280.2,65z"/>
			<path class="st1" d="M1288.6,77.4h-2.8v-2.7h2.8V77.4z"/>
			<path class="st1" d="M1291.9,69.8l1-9.4h9v2.5h-6.6l-0.5,4.3c0.3-0.2,0.7-0.5,1.2-0.6s0.9-0.2,1.5-0.3c1.6,0,2.9,0.5,3.8,1.5
				s1.4,2.4,1.4,4.2c0,1.7-0.5,3-1.4,4.1s-2.3,1.6-4.1,1.6c-1.5,0-2.8-0.4-3.8-1.2s-1.5-2-1.5-3.5l0-0.1l2.7-0.1
				c0,0.8,0.2,1.5,0.7,1.9s1.1,0.7,1.9,0.7c0.9,0,1.6-0.3,2-0.9s0.7-1.4,0.7-2.5c0-1-0.2-1.9-0.7-2.5s-1.2-1-2-1
				c-0.8,0-1.4,0.1-1.7,0.4c-0.4,0.3-0.7,0.6-0.8,1.1L1291.9,69.8z"/>
		</g>
	</g>
	<g>
		<g>
			<path class="st1" d="M1320.1,75.4c1,0,1.8-0.4,2.5-1.1c0.6-0.8,0.9-1.8,0.9-3.3v-0.8c-0.4,0.5-0.8,0.9-1.4,1.2s-1.2,0.4-1.8,0.4
				c-1.6,0-2.9-0.5-3.8-1.5s-1.4-2.4-1.4-4.2c0-1.7,0.5-3.1,1.6-4.2s2.4-1.7,3.9-1.7c1.8,0,3.2,0.6,4.2,1.7s1.6,2.8,1.6,5v4
				c0,2.2-0.6,3.8-1.7,5s-2.7,1.8-4.5,1.8c-0.6,0-1.2-0.1-1.8-0.2s-1.2-0.3-1.7-0.5l0.4-2.2c0.5,0.2,1,0.4,1.5,0.5
				S1319.4,75.4,1320.1,75.4z M1320.5,69.6c0.7,0,1.3-0.1,1.8-0.4s0.9-0.6,1.1-1.1v-1.5c0-1.4-0.3-2.4-0.8-3.1c-0.5-0.7-1.2-1-2.2-1
				c-0.8,0-1.4,0.3-1.9,1c-0.5,0.7-0.8,1.5-0.8,2.6c0,1.1,0.2,1.9,0.7,2.6S1319.7,69.6,1320.5,69.6z"/>
			<path class="st1" d="M1331.7,77.4h-2.8v-2.7h2.8V77.4z"/>
			<path class="st1" d="M1345.6,70.9c0,2.2-0.5,3.9-1.5,5.1s-2.4,1.7-4.1,1.7c-1.7,0-3.1-0.6-4.1-1.7s-1.5-2.9-1.5-5.1v-3.9
				c0-2.2,0.5-3.9,1.5-5.1s2.4-1.8,4.1-1.8c1.7,0,3.1,0.6,4.1,1.8s1.5,2.9,1.5,5.1V70.9z M1342.7,66.5c0-1.4-0.2-2.4-0.7-3.1
				c-0.5-0.7-1.2-1-2.1-1s-1.6,0.3-2,1c-0.5,0.7-0.7,1.7-0.7,3.1v4.7c0,1.4,0.2,2.4,0.7,3.1s1.2,1,2.1,1s1.6-0.3,2-1
				s0.7-1.7,0.7-3.1V66.5z"/>
		</g>
	</g>
	<g>
		<g>
			<path class="st1" d="M357.8,180.2h-5.3v-17.5h-5.1V159l10.3-1.6V180.2z"/>
			<path class="st1" d="M380.9,171.2c0,3.1-0.7,5.4-2.1,7c-1.4,1.6-3.3,2.4-5.8,2.4c-2.4,0-4.4-0.8-5.8-2.4c-1.4-1.6-2.1-3.9-2.1-7
				v-4.8c0-3.1,0.7-5.4,2.1-7c1.4-1.6,3.3-2.4,5.8-2.4c2.4,0,4.4,0.8,5.8,2.4c1.4,1.6,2.1,3.9,2.1,7V171.2z M375.6,166.1
				c0-1.7-0.2-3-0.7-3.8c-0.5-0.8-1.1-1.1-2-1.1c-0.9,0-1.5,0.4-2,1.1c-0.4,0.8-0.7,2-0.7,3.8v5.5c0,1.8,0.2,3,0.7,3.8
				c0.4,0.8,1.1,1.1,2,1.1c0.9,0,1.5-0.4,2-1.1c0.4-0.8,0.7-2,0.7-3.8V166.1z"/>
		</g>
	</g>
	<g>
		<path class="st5" d="M149.3,54.4h-5.3V31.6h5.3V54.4z"/>
		<path class="st5" d="M167.5,44.6h-8.9v5.7h10.5v4.1h-15.8V31.6h15.8v4.1h-10.5v4.9h8.9V44.6z"/>
		<path class="st5" d="M176.8,50.3h9.8v4.1h-15.1V31.6h5.3V50.3z"/>
		<path class="st5" d="M201.5,35.7h-6v18.7h-5.3V35.7h-6v-4.1h17.2V35.7z"/>
		<path class="st5" d="M215.4,48.3c0-0.8-0.3-1.4-0.8-1.9s-1.5-0.9-2.9-1.4c-2.9-0.9-5-1.9-6.4-2.9c-1.4-1-2.1-2.5-2.1-4.5
			c0-1.9,0.8-3.4,2.5-4.6c1.7-1.2,3.7-1.8,6.3-1.8c2.5,0,4.6,0.6,6.2,1.9s2.4,3,2.3,5l0,0.1h-5.1c0-0.9-0.3-1.6-0.9-2.2
			c-0.6-0.6-1.5-0.9-2.5-0.9c-1.1,0-1.9,0.2-2.5,0.7c-0.6,0.5-0.9,1-0.9,1.7c0,0.7,0.3,1.2,0.9,1.6c0.6,0.4,1.8,0.9,3.4,1.5
			c2.6,0.8,4.5,1.7,5.8,2.8c1.3,1.1,2,2.7,2,4.6c0,2-0.8,3.6-2.3,4.7c-1.6,1.1-3.6,1.7-6.2,1.7c-2.6,0-4.8-0.6-6.7-1.9
			c-1.9-1.3-2.8-3.2-2.8-5.6l0-0.1h5.1c0,1.3,0.4,2.2,1.1,2.8c0.7,0.6,1.8,0.8,3.2,0.8c1.1,0,1.9-0.2,2.4-0.7
			C215.2,49.6,215.4,49,215.4,48.3z"/>
	</g>
	<line class="st6" x1="1353.7" y1="90" x2="1353.7" y2="37"/>
	<line class="st6" x1="1306.5" y1="90" x2="1306.5" y2="37"/>
	<line class="st6" x1="1267.6" y1="90" x2="1267.6" y2="37"/>
	<line class="st6" x1="1217" y1="90" x2="1217" y2="37"/>
	<line class="st6" x1="1142.5" y1="90" x2="1142.5" y2="37"/>
	<line class="st6" x1="1043.2" y1="90" x2="1043.2" y2="37"/>
	<line class="st6" x1="955.2" y1="90" x2="955.2" y2="37"/>
	<line class="st6" x1="855.9" y1="90" x2="855.9" y2="37"/>
	<line class="st6" x1="756.1" y1="90" x2="756.1" y2="37"/>
	<line class="st6" x1="712.7" y1="282.4" x2="712.7" y2="245.4"/>
	<line class="st6" x1="737.6" y1="282.4" x2="737.6" y2="245.4"/>
	<line class="st6" x1="787.4" y1="282.4" x2="787.4" y2="245.4"/>
	<line class="st6" x1="837.3" y1="282.4" x2="837.3" y2="245.4"/>
	<line class="st6" x1="899.6" y1="282.4" x2="899.6" y2="245.4"/>
	<line class="st6" x1="999.5" y1="282.4" x2="999.5" y2="245.4"/>
	<line class="st6" x1="1086.5" y1="282.4" x2="1086.5" y2="245.4"/>
	<line class="st6" x1="1186.2" y1="282.4" x2="1186.2" y2="245.4"/>
	<line class="st6" x1="1285.9" y1="282.4" x2="1285.9" y2="245.4"/>
	<line class="st6" x1="682.5" y1="90" x2="682.5" y2="37"/>
	<line class="st6" x1="593" y1="90" x2="593" y2="37"/>
	<path class="st1" d="M363.7,245.4H0v61.2c0,15.9,12.9,28.8,28.8,28.8h334.9V245.4z"/>
	<g>
		<path class="st5" d="M125.4,281h-6v18.7h-5.3V281h-6V277h17.2V281z"/>
		<path class="st5" d="M145.9,290.4c0,2.8-0.9,5.1-2.7,6.9c-1.8,1.8-4.1,2.7-7,2.7c-2.9,0-5.2-0.9-7-2.7c-1.8-1.8-2.7-4.1-2.7-6.9
			v-4.1c0-2.8,0.9-5.1,2.7-6.9c1.8-1.8,4.1-2.7,7-2.7c2.9,0,5.2,0.9,7,2.7c1.8,1.8,2.7,4.1,2.7,6.9V290.4z M140.6,286.3
			c0-1.6-0.4-3-1.1-4c-0.8-1-1.8-1.6-3.2-1.6c-1.4,0-2.5,0.5-3.3,1.6c-0.8,1-1.1,2.4-1.1,4v4.1c0,1.6,0.4,3,1.1,4s1.9,1.6,3.3,1.6
			c1.4,0,2.5-0.5,3.2-1.6c0.8-1,1.1-2.4,1.1-4V286.3z"/>
		<path class="st5" d="M163.2,290h-8.9v5.7h10.5v4.1H149V277h15.8v4.1h-10.5v4.9h8.9V290z"/>
		<path class="st5" d="M181.6,290.6h-9.1v9.2h-5.3V277h16v4.1h-10.7v5.5h9.1V290.6z"/>
		<path class="st5" d="M190.9,295.6h9.8v4.1h-15.1V277h5.3V295.6z"/>
		<path class="st5" d="M216.1,278.9h-5.3v-3.5h5.3V278.9z M216.1,299.7h-5.3v-16.9h5.3V299.7z"/>
		<path class="st5" d="M219.6,299.7V277h7.8c2.8,0,5,0.5,6.6,1.6c1.6,1,2.4,2.6,2.4,4.7c0,1.1-0.3,2-0.8,2.9
			c-0.5,0.8-1.3,1.5-2.4,1.9c1.3,0.3,2.3,0.9,3,1.8c0.6,0.9,1,2,1,3.1c0,2.2-0.7,3.9-2.2,5c-1.5,1.1-3.6,1.7-6.4,1.7H219.6z
			 M224.9,286.4h2.6c1.2,0,2.1-0.3,2.7-0.7c0.6-0.4,0.9-1.1,0.9-1.9c0-1-0.3-1.7-0.9-2.1c-0.6-0.4-1.5-0.7-2.8-0.7h-2.5V286.4z
			 M224.9,289.9v5.7h3.6c1.1,0,2-0.2,2.5-0.7c0.6-0.4,0.8-1.1,0.8-2c0-1-0.2-1.7-0.7-2.2c-0.5-0.5-1.3-0.8-2.4-0.8H224.9z"/>
		<path class="st5" d="M255.6,281h-6v18.7h-5.3V281h-6V277h17.2V281z"/>
	</g>
	<g>
		<g>
			<path class="st1" d="M61.5,160.4v5.3h2.7c2.4,0,3.6-0.9,3.6-2.7c0-1-0.3-1.7-1-2.1c-0.6-0.4-1.7-0.6-3.3-0.6H61.5L61.5,160.4z
				 M55.7,156.2H66c2.3,0,4.2,0.7,5.5,2c1.4,1.3,2.1,2.9,2.1,4.8c0,1.9-0.7,3.5-2,4.9c-1.4,1.4-3.2,2-5.5,2h-4.6v9.2h-5.7V156.2
				L55.7,156.2z"/>
			<polygon class="st1" points="98,156.2 98,160.4 89.7,160.4 89.7,179.2 83.9,179.2 83.9,160.4 75.6,160.4 75.6,156.2 98,156.2 			
				"/>
			<polygon class="st1" points="117.7,175 117.7,179.2 100.7,179.2 100.7,156.2 117.4,156.2 117.4,160.4 106.4,160.4 106.4,165.3 
				116.9,165.3 116.9,169.5 106.4,169.5 106.4,175 117.7,175 			"/>
			<path class="st1" d="M143.6,160.1l-4.2,9.5h8.5L143.6,160.1L143.6,160.1z M154.9,179.2h-2.6l-3.3-7.4h-10.5l-3.3,7.4h-2.6
				l10.2-23.1h1.7L154.9,179.2L154.9,179.2z"/>
			<path class="st1" d="M175.1,160.6c-2.6-1.4-5.1-2.3-8-2.3c-5.5,0-9.6,4-9.6,9.5c0,5.5,4.1,9.3,9.5,9.3c3,0,5.7-0.9,8.3-2.4v2.7
				c-2.5,1.3-5.4,2.1-8.2,2.1c-7.4,0-12.3-5.3-12.3-11.7c0-7.2,6-11.9,12.1-11.9c2.8,0,5.6,0.8,8.2,1.9V160.6L175.1,160.6z"/>
			<path class="st1" d="M187.7,160.1l-4.2,9.5h8.5L187.7,160.1L187.7,160.1z M199,179.2h-2.6l-3.3-7.4h-10.5l-3.3,7.4h-2.6
				l10.2-23.1h1.7L199,179.2L199,179.2z"/>
			<path class="st1" d="M204.3,177h4.7c4.7,0,10.9-1.5,10.9-9.3c0-7.8-6.2-9.3-10.9-9.3h-4.7V177L204.3,177z M208.9,156.2
				c7.4,0,13.7,3.1,13.7,11.5c0,8.4-6.4,11.5-13.7,11.5h-7.1v-23H208.9L208.9,156.2z"/>
			<polygon class="st1" points="239.7,158.5 229.4,158.5 229.4,166.5 239.4,166.5 239.4,168.7 229.4,168.7 229.4,177 240,177 
				240,179.2 226.9,179.2 226.9,156.2 239.7,156.2 239.7,158.5 			"/>
			<polygon class="st1" points="264.9,179.2 262.4,179.2 262.4,160.1 254.5,169.9 254.2,169.9 246.2,160.1 246.2,179.2 243.7,179.2 
				243.7,156.2 246.1,156.2 254.3,166.3 262.5,156.2 264.9,156.2 264.9,179.2 			"/>
			<polygon class="st1" points="272.9,179.2 270.3,179.2 270.3,156.2 272.9,156.2 272.9,179.2 			"/>
			<path class="st1" d="M297.6,160.6c-2.6-1.4-5.1-2.3-8-2.3c-5.5,0-9.6,4-9.6,9.5c0,5.5,4.1,9.3,9.5,9.3c3,0,5.7-0.9,8.3-2.4v2.7
				c-2.5,1.3-5.4,2.1-8.2,2.1c-7.4,0-12.3-5.3-12.3-11.7c0-7.2,6-11.9,12.1-11.9c2.8,0,5.6,0.8,8.2,1.9V160.6L297.6,160.6z"/>
			<path class="st1" d="M303.9,156.2h0.9l1.1,3.5l1.1-3.5h0.9v4.3h-0.6v-3.8l-1.2,3.8h-0.5l-1.2-3.8v3.8h-0.6V156.2L303.9,156.2z
				 M301.3,160.6v-3.8h-1.4v-0.6h3.5v0.6H302v3.8H301.3L301.3,160.6z"/>
		</g>
	</g>
</g>
</svg>
