<?xml version="1.0" encoding="iso-8859-1"?>
<!-- Generator: Adobe Illustrator 16.0.0, SVG Export Plug-In . SVG Version: 6.00 Build 0)  -->
<!DOCTYPE svg PUBLIC "-//W3C//DTD SVG 1.1//EN" "http://www.w3.org/Graphics/SVG/1.1/DTD/svg11.dtd">
<svg version="1.1" xmlns="http://www.w3.org/2000/svg" xmlns:xlink="http://www.w3.org/1999/xlink" x="0px" y="0px"
	 width="100%" height="100%" viewBox="0 0 584.121 160.705" style="enable-background:new 0 0 584.121 160.705;"
	 xml:space="preserve">
<g>
	<path style="fill-rule:evenodd;clip-rule:evenodd;fill:#E2000F;" d="M463.461,150.733h-5.53l0.989-4.949h5.53L463.461,150.733
		L463.461,150.733z M471.83,140.076c0.514-3.247,1.729-5.827,3.642-7.754c1.914-1.927,4.336-2.89,7.259-2.89
		c2.799,0,4.884,1.003,6.25,3.002c1.365,2.006,1.801,4.554,1.313,7.642l-0.06,0.409c-0.527,3.26-1.748,5.847-3.662,7.767
		c-1.913,1.921-4.335,2.877-7.259,2.877c-2.798,0-4.876-0.996-6.242-2.996c-1.365-1.992-1.802-4.546-1.3-7.647L471.83,140.076
		L471.83,140.076z M477.32,140.473c-0.323,1.992-0.291,3.536,0.099,4.646c0.383,1.102,1.241,1.656,2.567,1.656
		c1.227,0,2.229-0.581,3.016-1.742c0.791-1.162,1.339-2.686,1.649-4.56l0.053-0.403c0.311-1.927,0.271-3.458-0.125-4.586
		c-0.39-1.128-1.241-1.696-2.541-1.696c-1.24,0-2.25,0.595-3.042,1.775c-0.799,1.181-1.333,2.68-1.617,4.507L477.32,140.473
		L477.32,140.473z M502.74,132.54c0.838-1.009,1.781-1.781,2.824-2.309c1.043-0.535,2.145-0.799,3.307-0.799
		c1.841,0,3.207,0.673,4.098,2.019c0.891,1.347,1.056,3.418,0.502,6.217l-2.607,13.065h-5.589l2.606-13.072
		c0.297-1.498,0.264-2.521-0.105-3.062c-0.363-0.541-1.076-0.813-2.139-0.813c-0.6,0-1.193,0.152-1.769,0.462
		c-0.566,0.311-1.095,0.739-1.569,1.28l-3.036,15.204h-5.569l4.178-20.905h5.199L502.74,132.54L502.74,132.54z M522.822,150.733
		h-5.563l6.031-30.17h5.563L522.822,150.733L522.822,150.733z M535.17,150.733h-5.563l4.171-20.905h5.569L535.17,150.733
		L535.17,150.733z M540.357,124.8h-5.569l0.851-4.236h5.563L540.357,124.8L540.357,124.8z M550.633,132.54
		c0.838-1.009,1.782-1.781,2.824-2.309c1.043-0.535,2.145-0.799,3.307-0.799c1.841,0,3.206,0.673,4.098,2.019
		c0.891,1.347,1.056,3.418,0.502,6.217l-2.607,13.065h-5.589l2.606-13.072c0.297-1.498,0.264-2.521-0.105-3.062
		c-0.363-0.541-1.076-0.813-2.139-0.813c-0.601,0-1.193,0.152-1.768,0.462c-0.567,0.311-1.096,0.739-1.57,1.28l-3.036,15.204h-5.569
		l4.177-20.905h5.2L550.633,132.54L550.633,132.54z M573.869,151.129c-2.745,0-4.837-0.97-6.262-2.917
		c-1.433-1.946-1.901-4.394-1.412-7.344l0.111-0.771c0.521-3.234,1.723-5.82,3.609-7.768c1.888-1.946,4.19-2.91,6.909-2.896
		c2.567,0,4.461,0.857,5.682,2.58c1.228,1.716,1.617,4.005,1.162,6.862l-0.481,3.068h-11.563c-0.105,1.479,0.14,2.646,0.713,3.524
		c0.581,0.87,1.518,1.307,2.805,1.307c1.082,0,2.046-0.133,2.884-0.39c0.839-0.258,1.742-0.646,2.726-1.175l0.943,3.491
		c-0.884,0.687-2.02,1.26-3.392,1.729C576.931,150.898,575.453,151.129,573.869,151.129L573.869,151.129z M576.133,133.787
		c-0.878,0-1.644,0.403-2.29,1.208c-0.653,0.798-1.142,1.848-1.465,3.128l0.039,0.1h5.92l0.072-0.502
		c0.198-1.247,0.112-2.211-0.237-2.903C577.815,134.131,577.136,133.787,576.133,133.787z"/>
	<path style="fill-rule:evenodd;clip-rule:evenodd;fill:#1A3178;" d="M271.219,60.161V48.814h-33.861v11.346h10.637v51.766h12.587
		V60.161H271.219L271.219,60.161z M313.058,94.996V48.814h-12.587v46.803c0,4.077-2.394,5.673-5.23,5.673
		c-2.836,0-5.229-1.596-5.229-5.673V48.814h-12.587v46.182c0,5.053,1.684,9.308,4.698,12.41c3.368,3.457,7.8,5.229,13.119,5.229
		s9.75-1.772,13.119-5.229C311.373,104.304,313.058,100.049,313.058,94.996L313.058,94.996z M353.123,60.161V48.814h-33.861v11.346
		h10.638v51.766h12.587V60.161H353.123L353.123,60.161z M393.632,80.371c0-8.51,0.354-19.945-4.698-25.972
		c-2.925-3.457-6.825-6.293-13.917-6.293c-7.091,0-10.813,2.836-13.738,6.293c-5.053,6.027-4.698,17.462-4.698,25.972
		c0,8.509-0.354,19.944,4.698,25.972c2.925,3.457,6.647,6.293,13.738,6.293c7.092,0,10.992-2.836,13.917-6.293
		C393.986,100.315,393.632,88.88,393.632,80.371L393.632,80.371z M381.045,80.371c0,7.623-0.178,15.512-1.685,18.437
		c-0.709,1.419-2.039,2.482-4.344,2.482s-3.457-1.063-4.166-2.482c-1.507-2.925-1.684-10.813-1.684-18.437
		s0.177-15.513,1.684-18.438c0.709-1.418,1.861-2.482,4.166-2.482s3.635,1.064,4.344,2.482
		C380.867,64.858,381.045,72.748,381.045,80.371L381.045,80.371z M439.104,111.927l-9.219-27.301
		c6.116-3.813,7.18-9.839,7.18-16.576c0-12.056-3.812-19.235-17.551-19.235h-17.994v63.112h12.587V87.373h4.166l7.712,24.554
		H439.104L439.104,111.927z M424.479,68.05c0,3.634-0.266,7.978-5.053,7.978h-5.318V60.161h5.318
		C424.213,60.161,424.479,64.416,424.479,68.05L424.479,68.05z M458.782,111.927V48.814h-12.587v63.112H458.782L458.782,111.927z
		 M509.043,111.927l-16.222-63.112h-12.41l-16.221,63.112h13.118l2.039-9.839h14.537l2.039,9.839H509.043L509.043,111.927z
		 M491.491,90.742h-9.751l4.876-23.401L491.491,90.742L491.491,90.742z M543.523,111.927v-11.346h-16.487V48.814h-12.587v63.112
		H543.523L543.523,111.927z M584.121,93.933c0-11.435-2.305-15.069-10.282-18.26l-7.89-3.191c-3.634-1.507-4.343-2.659-4.343-6.648
		c0-2.127,0.266-3.457,1.063-4.521c0.709-0.975,1.861-1.684,3.634-1.684c1.861,0,2.925,0.621,3.635,1.596
		c1.063,1.418,1.063,3.457,1.063,5.672h12.587c0-6.382-1.418-11.434-4.875-14.625c-2.748-2.57-6.825-3.989-12.41-3.989
		c-4.786,0-8.599,1.418-11.611,3.989c-3.813,3.28-5.673,8.155-5.673,14.005c0,9.839,2.659,13.208,9.041,15.867l7.978,3.279
		c4.521,1.861,5.496,2.926,5.496,8.953c0,2.57-0.355,4.255-1.241,5.318c-0.798,1.063-2.039,1.596-3.989,1.596s-3.19-0.709-3.9-1.507
		c-1.151-1.33-1.329-3.191-1.329-5.762h-12.587c0,6.471,1.063,10.902,4.166,14.006c2.837,2.836,7.446,4.608,13.65,4.608
		c6.116,0,10.903-1.95,13.739-4.698C583.323,104.747,584.121,100.315,584.121,93.933z"/>
	<g>
		<path style="fill-rule:evenodd;clip-rule:evenodd;fill:#E2000F;" d="M210.813,127.054c2.77-1.584,7.534-6.949,9.75-9.549
			c9.879-11.589,15.074-28.041,12.146-44.148c-9.505-52.292-90.814-73.444-139.907-40.995c-11.364,7.511-21.045,16.939-26.71,30.934
			c-4.062,10.037-4.962,21.271-2.08,32.499c4.839,18.854,20.821,33.942,35.716,41.297c24.05,11.874,52.348,15.313,80.226,6.632
			c3.564-1.109,3.764-0.822,6.818,0.774c2.126,1.111,4.163,2.14,6.371,3.309c4.216,2.231,22.406,11.821,25.63,12.899
			L210.813,127.054z"/>
		<path style="fill-rule:evenodd;clip-rule:evenodd;fill:#1A3178;" d="M98.102,142.673l-14.953-9.848
			c-3.015-2.292-5.504-1.846-10.004-2.614c-8.115-1.386-16.36-5.315-19.461-3.779c-7.974,3.95-16.852,9.393-24.902,12.736
			l5.855-25.041c-1.646-1.853-2.473-1.927-4.205-3.659c-10.288-10.29-19.205-20.81-19.217-38.508
			c-0.014-20.809,12.623-34.65,22.873-42.607c20.702-16.069,50.572-21.571,78.084-16.128c7.768,1.536,5.57,1.808,13.56,0.279
			c4.83-0.924,9.425-1.569,14.412-1.88l-2.735-1.842c-1.25-0.611-1.709-0.834-3.002-1.35c-7.816-3.119-12.438-4.567-21.265-6.343
			C71.46-6.296,18.778,10.607,3.477,52.02C-0.276,62.177-0.99,73.43,1.332,83.867l4.802,13.604
			c3.206,6.408,7.119,10.855,11.396,16.213c4.982,6.24,5.644,0.904,2.107,15.04c-1.048,4.192-7.313,29.156-7.363,31.386
			c1.785-0.416,2.736-1.375,4.515-2.267l37.606-19.068c2.547-1.313,2.579-1.097,5.558-0.196c7.391,2.233,16.304,3.89,24.499,4.085
			c2.537,0.061,3.694,0.507,6.772,0.507C94.294,143.17,95.599,142.673,98.102,142.673z"/>
	</g>
	<path style="fill-rule:evenodd;clip-rule:evenodd;fill:#FFFFFF;" d="M129.854,93.933h-12.587c-0.089,1.772-0.266,3.546-0.975,4.875
		c-0.709,1.508-2.039,2.482-4.344,2.482s-3.457-1.063-4.166-2.482c-1.507-2.925-1.684-10.813-1.684-18.437
		s0.177-15.513,1.684-18.438c0.709-1.418,1.861-2.482,4.166-2.482s3.546,0.887,4.255,2.394c0.709,1.33,0.886,3.103,0.975,4.875
		h12.587c-0.266-6.027-2.305-10.991-5.584-14.094c-3.191-3.013-7.002-4.521-12.232-4.521c-7.091,0-10.814,2.836-13.739,6.293
		c-5.053,6.027-4.698,17.551-4.698,26.06c0,8.51-0.354,19.856,4.698,25.884c2.925,3.457,6.647,6.293,13.739,6.293
		c5.23,0,9.042-1.507,12.232-4.521C127.461,105.013,129.588,99.961,129.854,93.933L129.854,93.933z M171.338,93.933h-12.587
		c-0.088,1.772-0.266,3.546-0.975,4.875c-0.709,1.508-2.039,2.482-4.344,2.482s-3.457-1.063-4.166-2.482
		c-1.507-2.925-1.684-10.813-1.684-18.437s0.177-15.513,1.684-18.438c0.709-1.418,1.861-2.482,4.166-2.482s3.546,0.887,4.255,2.394
		c0.709,1.33,0.886,3.103,0.976,4.875h12.587c-0.267-6.027-2.305-10.991-5.585-14.094c-3.191-3.013-7.002-4.521-12.232-4.521
		c-7.091,0-10.814,2.836-13.739,6.293c-5.053,6.027-4.698,17.551-4.698,26.06c0,8.51-0.354,19.856,4.698,25.884
		c2.925,3.457,6.647,6.293,13.739,6.293c5.23,0,9.042-1.507,12.232-4.521C168.945,105.013,171.072,99.961,171.338,93.933
		L171.338,93.933z M207.947,111.927v-11.346h-16.488V48.814h-12.587v63.112H207.947z"/>
</g>
</svg>
